<svg width="28" height="28" viewBox="0 0 28 28" fill="none" xmlns="http://www.w3.org/2000/svg">
<path d="M3.62637 27.716L3.10206 27.9781L2.83991 27.716L1.26698 26.143L0.742676 25.8809L1.26698 25.3566L12.0153 14.6082L1.26698 3.8599L0.742676 3.33559L1.26698 3.07343L2.83991 1.50051L3.10206 0.976196L3.62637 1.50051L14.3747 12.2488L25.123 1.50051L25.6473 0.976196L25.9095 1.50051L27.4824 3.07343L27.7446 3.33559L27.4824 3.8599L16.7341 14.6082L27.4824 25.3566L27.7446 25.8809L27.4824 26.143L25.9095 27.716L25.6473 27.9781L25.123 27.716L14.3747 16.9676L3.62637 27.716Z" fill="white"/>
</svg>
