<svg width="61" height="61" viewBox="0 0 61 61" fill="none" xmlns="http://www.w3.org/2000/svg">
<path fill-rule="evenodd" clip-rule="evenodd" d="M30.4361 0C47.3166 0 61 13.6834 61 30.5639C61 47.4444 47.3166 61 30.4361 61C13.5556 61 0 47.4444 0 30.5639C0 13.6834 13.5556 0 30.4361 0Z" fill="#D20A11"/>
<path fill-rule="evenodd" clip-rule="evenodd" d="M26.3439 23.7864C25.3208 23.4028 24.1699 23.147 22.891 23.147C21.7401 23.147 20.717 23.4028 19.694 23.7864C18.6709 24.298 17.7757 25.1931 17.0084 26.3441V16.625H11.7653V43.9919H17.0084V32.994C17.0084 31.3315 17.3921 29.9248 18.1594 28.9017C18.9267 28.0066 19.9497 27.6229 21.3565 27.6229C22.7632 27.6229 23.6583 28.0066 24.042 29.0296C24.4256 29.669 24.6814 30.5642 24.6814 31.5873V43.9919H30.0525V32.0988C30.0525 30.3084 30.0525 28.9017 29.9246 28.1344C29.7967 27.3671 29.4131 26.5998 28.9015 25.8325C28.2621 24.9374 27.3669 24.1701 26.3439 23.7864ZM46.933 23.7864C45.9099 23.4028 44.759 23.147 43.4801 23.147C42.4571 23.147 41.3061 23.4028 40.411 23.7864C39.3879 24.298 38.4927 25.1931 37.7254 26.3441V16.625H32.3544V43.9919H37.7254V32.994C37.7254 31.3315 37.9812 29.9248 38.7485 28.9017C39.5158 28.0066 40.5388 27.6229 41.9456 27.6229C43.3523 27.6229 44.2474 28.0066 44.759 29.0296C45.1426 29.669 45.2705 30.5642 45.2705 31.5873V43.9919H50.6416V32.0988C50.6416 30.3084 50.6416 28.9017 50.5137 28.1344C50.3858 27.3671 50.0022 26.5998 49.4906 25.8325C48.8512 24.9374 47.956 24.1701 46.933 23.7864Z" fill="white"/>
</svg>
