<svg width="85" height="83" viewBox="0 0 85 83" fill="none" xmlns="http://www.w3.org/2000/svg">
<path d="M65.2063 8.19684L57.9305 0.920993L57.0095 0L56.0654 0.920993L46.7404 10.2691L45.7964 11.1901L46.7404 12.1111L54.0162 19.3869L54.4537 19.8244L54.0162 20.2618L52.9341 21.344L52.0131 22.265L52.9341 23.186L54.6149 24.8668L55.0523 25.3043L54.6149 25.7418L43.8393 36.5174L35.5043 28.1824L35.0668 27.7449L35.5043 27.3074L37.1851 25.6266L38.1061 24.7056L37.1851 23.7616L36.1259 22.7025L35.6885 22.265L36.1259 21.8275L43.3327 14.6208L44.2537 13.6767L43.3327 12.7558L33.9846 3.4307L33.0636 2.48668L32.1427 3.4307L24.9359 10.6375L24.4984 11.0749L24.0379 10.6144L22.9788 9.5553L22.0578 8.63431L21.1368 9.5553L7.13769 23.5544L6.2167 24.4754L7.13769 25.4194L8.19684 26.4785L8.63431 26.916L8.19684 27.3535L0.920993 34.6293L0 35.5503L0.920993 36.4943V36.4713L10.2691 45.8194L11.1901 46.7404L12.1341 45.8194L19.3869 38.5436L19.8474 38.1061L20.2849 38.5436L21.344 39.6027V39.6257L22.265 40.5467L23.186 39.6257V39.6027L24.8668 37.9449L25.3043 37.5074L25.7418 37.9449L34.0767 46.2799L11.2131 69.1435L10.2921 70.0645L11.2131 71.0086L19.1106 78.9061L20.0546 79.8271L20.9756 78.9061L43.8393 56.0424L69.1435 81.3467L70.0876 82.2677L71.0085 81.3467L78.9061 73.4262L79.8501 72.5052L78.9061 71.5842L53.6018 46.2799L64.3774 35.5043L64.8149 35.0668L65.2523 35.5043L66.9332 37.1851L67.8541 38.1061L68.7982 37.1851L69.4889 36.4943L69.9494 36.0108L70.3869 36.5174C71.2618 37.4844 72.0907 38.4515 72.8966 39.3724C73.7485 40.3625 74.5544 41.3296 75.3372 42.2736C76.3273 43.4939 77.3174 44.7372 78.2614 45.9575C79.1824 47.1779 80.0803 48.3752 80.9553 49.5724L82.4058 51.5986L83.2347 49.2501C83.9945 47.2009 84.5011 45.0596 84.7774 42.8952C85.0307 40.6849 85.0767 38.4745 84.8695 36.2871C84.6853 34.33 84.3169 32.3959 83.7413 30.4849C83.2117 28.6199 82.4749 26.8009 81.5539 25.028L81.3467 24.6366L81.669 24.3142L82.9815 22.9788L83.9255 22.0578L82.9815 21.1138L69.0054 7.1377L68.0614 6.19368L67.1404 7.1377L66.0812 8.19684L65.6438 8.63431L65.2063 8.19684ZM41.9973 38.3594L42.9183 39.3034L48.5133 44.8754L50.8158 47.2009L51.7598 48.1219L75.6826 72.0677L76.1201 72.5052L75.6826 72.9426L70.525 78.1232L70.0876 78.5607L69.6501 78.1232L45.7043 54.1774L44.7833 53.2564L36.8627 45.3359L35.9417 44.4149L27.6068 36.0799L27.1693 35.6424L27.6068 35.205L32.7873 30.0244L33.2248 29.5869L33.6623 30.0244L41.9973 38.3594ZM41.5598 53.7399L41.9973 54.1774L41.5598 54.6149L20.4921 75.6826L20.0546 76.1201L19.6171 75.6826L14.4366 70.502L13.9991 70.0645L14.4366 69.6271L35.5043 48.5824L35.9417 48.1219L36.3792 48.5824L41.5598 53.7399ZM24.3833 34.7214L23.0018 36.0799L22.7025 36.3792L22.265 36.8167L21.8275 36.3792L20.7684 35.3201L19.8474 34.3991L18.9034 35.3201L11.6506 42.5959L11.1901 43.0334L10.7526 42.5959L4.16749 35.9878L3.707 35.5503L4.16749 35.1129L11.4203 27.837L12.3643 26.916L11.4203 25.995L10.3612 24.9129L9.9237 24.4754L10.3612 24.0379L21.6203 12.7788L22.0578 12.3413L22.4953 12.8018L23.5544 13.8609L24.4984 14.7819L25.4194 13.8609L32.6262 6.65417L33.0636 6.2167L33.5011 6.65417L40.1092 13.2393L40.5467 13.6767L40.1092 14.1372L32.9025 21.344L31.9815 22.265L32.9025 23.186L33.9616 24.2451L34.3991 24.6826L33.9616 25.1201L32.2808 26.8009L24.3833 34.7214ZM66.6799 33.2018L65.851 32.3729L65.7359 32.2808L57.8384 24.3833V24.3603L56.1575 22.7025L55.7201 22.265L56.1575 21.8275L57.2397 20.7454L58.1607 19.8244L57.2397 18.9034L49.9639 11.6275L49.5264 11.1901L49.9639 10.7526L56.572 4.14447L57.0095 3.707L57.4469 4.14447L64.6997 11.4203L65.6438 12.3413L66.5648 11.4203L67.6239 10.3612L68.0614 9.9237L68.5219 10.3612L79.758 21.5973L80.1955 22.0578L79.758 22.4953L78.7679 23.4623L78.0541 24.1761L78.5837 25.051C79.5968 26.8239 80.4257 28.6889 81.0474 30.6C81.669 32.5341 82.0835 34.5142 82.2677 36.5174C82.3828 37.8758 82.4058 39.2573 82.3368 40.5928C82.2677 41.9512 82.1065 43.2867 81.8302 44.6221L81.5539 45.9575L80.725 44.8754C80.1955 44.1616 79.6429 43.4478 79.0672 42.7341C78.5146 42.0203 77.939 41.3065 77.3634 40.6158C76.3503 39.3724 75.3142 38.1291 74.255 36.9088C73.1959 35.7115 72.0907 34.4682 70.9625 33.2248L70.0185 32.2348L69.0514 33.2018L68.2916 33.9616L67.8541 34.3991L67.4167 33.9616L67.1174 33.6393L66.6799 33.2018ZM62.5124 33.6393L52.1973 43.9774L51.7598 44.4149L51.3223 43.9774L46.1417 38.7968L45.7043 38.3594L46.1417 37.9219L56.4799 27.6068L56.9174 27.1693L57.3548 27.6068L62.5124 32.7643L62.9499 33.2018L62.5124 33.6393Z" fill="#2F74FF"/>
</svg>
