<svg width="77" height="58" viewBox="0 0 77 58" fill="none" xmlns="http://www.w3.org/2000/svg">
<path d="M24.0181 16.0274L50.0054 1.96908L51.5852 1.09902V2.90782V16.3021C53.6458 17.0806 55.4318 18.4315 56.7139 20.1487C58.1335 22.072 58.9807 24.4303 58.9807 26.9718C58.9807 29.5361 58.1335 31.8944 56.7139 33.7948C55.4318 35.5349 53.6458 36.8858 51.5852 37.6643V51.0586V52.8674L50.0054 51.9973L23.8121 37.733C23.7892 37.733 23.7434 37.7559 23.7205 37.7559H23.6976L23.6747 37.7788H23.6518H23.6289H23.606H23.5831H23.5602V37.8017H23.5373H23.5144H23.4915H23.4686H23.4457H23.4228H23.3999H23.377H23.3541H23.3313H23.3084L23.2626 37.8246H20.9271L17.9735 54.7907C17.8591 55.3402 17.5843 55.8668 17.1951 56.256H17.1722C16.7829 56.6453 16.2792 56.92 15.7297 57.0116L15.6152 57.0345H15.5923H15.5694L15.5236 57.0574H15.5007H15.4778H15.455H15.3863H15.3634H15.3176H15.2947H7.55575H7.53286H7.50996H7.48706H7.44127H7.39548H7.37258H7.34969H7.32679H7.3039L7.281 57.0345H7.2581H7.21231H7.18941L7.14362 57.0116H7.12073C6.54832 56.92 6.0446 56.5995 5.67826 56.1644C5.31192 55.7523 5.10586 55.2028 5.10586 54.6075V37.8246H1.85459C1.35088 37.8246 0.870056 37.5956 0.549509 37.2751C0.206066 36.9316 0 36.4737 0 35.97V17.7217C0 17.218 0.206066 16.76 0.549509 16.4166C0.870056 16.0731 1.35088 15.8671 1.85459 15.8671H23.2626H23.3084H23.3313C23.3541 15.8671 23.377 15.8671 23.3999 15.89H23.4228H23.4457H23.4686H23.4915H23.5144H23.5373H23.5602H23.5831L23.606 15.9129H23.6289H23.6518H23.6747L23.6976 15.9358H23.7205H23.7434H23.7663L23.7892 15.9587H23.8121H23.835L23.8579 15.9816H23.8808H23.9037L23.9266 16.0045H23.9494H23.9723V16.0274H23.9952H24.0181ZM58.3396 52.0431C59.0723 51.7455 59.782 51.402 60.446 51.0357C61.1558 50.6693 61.8198 50.2572 62.4838 49.8451L63.6286 51.631C62.9188 52.0889 62.209 52.5239 61.4535 52.9132C60.7208 53.3253 59.9652 53.6916 59.1867 54.0122L58.3396 52.0431ZM57.1032 10.2575C56.5766 9.95986 56.0271 9.66221 55.4547 9.41035C54.9051 9.15849 54.3327 8.95242 53.7374 8.74636L54.4243 6.70859C55.0654 6.93756 55.7065 7.18941 56.3247 7.46417C56.9429 7.73892 57.5611 8.05947 58.1564 8.38002L57.1032 10.2575ZM64.2239 48.5858C67.521 46.0443 70.2227 42.7701 72.0773 39.0152C73.8403 35.3747 74.8478 31.2991 74.8478 26.9718C74.8478 21.4767 73.2221 16.3479 70.4059 12.0663C67.521 7.62444 63.3767 4.09842 58.477 1.96908L59.347 0C64.6131 2.31252 69.0779 6.11329 72.2147 10.8757C75.237 15.5007 77 21.0416 77 26.9718C77 31.6197 75.901 36.0158 73.9777 39.9539C71.9857 44.0065 69.0779 47.5326 65.529 50.2801L64.2239 48.5858ZM53.7145 45.22C57.584 43.915 60.8811 41.4193 63.2165 38.1909C65.4832 35.0312 66.8112 31.1618 66.8112 26.9718C66.8112 23.9494 66.1014 21.0874 64.865 18.5459C63.5828 15.89 61.6824 13.5775 59.3928 11.7916L60.7208 10.1201C63.2623 12.1121 65.3687 14.6765 66.7883 17.6072C68.185 20.4234 68.9634 23.606 68.9634 26.9718C68.9634 31.6197 67.4752 35.9242 64.9566 39.4273C62.3693 43.0449 58.683 45.7924 54.4014 47.2578L53.7145 45.22ZM51.5852 18.6146V35.3289C52.9361 34.6878 54.1038 33.7032 54.9967 32.5126C56.1415 30.9786 56.8284 29.0553 56.8284 26.9718C56.8284 24.9111 56.1415 22.9878 54.9967 21.4538C54.1038 20.2403 52.9361 19.2786 51.5852 18.6146ZM26.8802 18.8894L45.5406 8.83794L46.548 10.7383L27.8876 20.7669L26.8802 18.8894ZM18.752 37.8246H7.2581V54.6075C7.2581 54.6762 7.281 54.7449 7.32679 54.7907C7.34969 54.8365 7.41838 54.8822 7.46417 54.9051H7.50996H7.53286H7.55575H15.2947H15.3176H15.3405H15.3634C15.4778 54.8822 15.5923 54.8136 15.6839 54.722C15.7755 54.6304 15.8213 54.5388 15.8442 54.4243L18.752 37.8246ZM22.8046 35.6723L22.8733 35.6036C22.9191 35.5578 22.942 35.5349 22.9649 35.4891C22.9649 35.4434 22.9878 35.4205 22.9878 35.3747V35.3518V18.317C22.9878 18.2941 22.9649 18.2483 22.9649 18.2254C22.942 18.1796 22.9191 18.1567 22.8962 18.1338L22.8046 18.0193H2.15224V35.6723H5.10586H21.2935H22.8046ZM25.1172 17.8819V18.317V35.3518V35.97V35.9929V36.0158L49.4329 49.2498V38.3283V36.8858V17.0577V15.6381V4.69373L25.1172 17.8819Z" fill="#2F74FF"/>
</svg>
