<svg width="74" height="82" viewBox="0 0 74 82" fill="none" xmlns="http://www.w3.org/2000/svg">
<path fill-rule="evenodd" clip-rule="evenodd" d="M38.142 0.274074V10.963V11.237H37.8679H36.9772H36.0864H35.8123V10.963L35.8352 0.274074V0H36.0864H36.9772H37.2284H37.8679H38.142V0.274074ZM46.0444 38.3932H38.0278H36.6346L37.0685 37.0685L39.1241 31.0617L29.1889 43.0753H37.1827H38.5759L38.142 44.4L36.0864 50.4296L46.0444 38.3932ZM39.421 36.3833H48.1685H50.2926L48.9222 38.0278L34.1679 55.8883L32.4549 54.929L35.7895 45.0852H27.0648H24.9179L26.2883 43.4407L41.0426 25.5802L42.7556 26.5395L39.421 36.3833ZM30.2167 69.592L45.0167 69.5463H45.2907V69.8204V71.579V71.8531H45.0167L30.2167 71.8988H29.9426V71.6247V69.866V69.592H30.2167ZM30.2167 66.2574L45.0167 66.2117H45.2907V66.4858V68.2673V68.5414H45.0167L30.2167 68.587H29.9426V68.313V66.5315V66.2574H30.2167ZM49.4932 63.6537V69.6833C49.4932 70.6198 49.3562 71.5105 49.0821 72.3556C48.808 73.2235 48.4198 74.0457 47.9173 74.7994C47.4605 75.4617 46.9352 76.0556 46.3185 76.5809C45.7704 77.0833 45.1537 77.4944 44.4685 77.837C44.4685 78.2938 44.3543 78.7278 44.1944 79.116C43.9889 79.5957 43.7148 80.0068 43.3494 80.3722C43.0068 80.7148 42.5728 81.0117 42.1161 81.1944C41.6593 81.3772 41.1796 81.4914 40.6543 81.4914H34.5105C33.9852 81.4914 33.5056 81.3772 33.0488 81.1944C32.5691 81.0117 32.158 80.7148 31.8154 80.3722H31.7926C31.45 80.0068 31.1759 79.5957 30.9704 79.1389C30.8105 78.7506 30.7191 78.3167 30.6963 77.8827C30.0111 77.5401 29.3716 77.1062 28.8235 76.6265C28.2068 76.1012 27.6586 75.4846 27.2019 74.8222C26.6994 74.0685 26.2883 73.2463 26.0142 72.3784C25.763 71.5333 25.6031 70.6198 25.6031 69.6833V63.6537V62.763V62.4889H25.8772H26.7679H26.9278C26.8136 61.5296 26.6537 60.6617 26.4253 59.8167C26.1741 58.9031 25.8315 58.0352 25.3975 57.1444C24.9179 56.1167 24.2556 55.066 23.4333 53.8784C22.634 52.7136 21.6519 51.4346 20.487 49.9272L20.3043 49.7216L20.2815 49.6988L20.2586 49.6531L20.1901 49.5617L20.0531 49.4018V49.379L19.8475 49.1278V49.1049L19.8247 49.0821L19.6648 48.8309L19.642 48.808L19.6191 48.7852L19.5963 48.7623L19.5735 48.7395L19.4136 48.5111V48.4883L19.3907 48.4654L19.3679 48.4198V48.3969H19.3451V48.3741L19.2309 48.2142L19.208 48.1914L19.1623 48.1228L18.9568 47.7802L18.8883 47.666L18.8654 47.6432V47.6204L18.8198 47.5518L18.7741 47.4833L18.7512 47.4377L18.6142 47.2093L18.5 47.0037L18.4772 46.9809V46.958L18.4315 46.8895L18.4086 46.8438L18.3173 46.6611H18.2944V46.6383L18.2031 46.4784V46.4556L18.1802 46.4327V46.4099L18.1574 46.3642L18.0204 46.1358L17.9975 46.0673V46.0444H17.9747L17.929 45.9302V45.9074L17.8833 45.8617L17.8148 45.7018L17.792 45.6562L17.7691 45.5877L17.7235 45.542V45.5191L17.6321 45.2907L17.6093 45.2451L17.5636 45.1765V45.1537L17.4951 45.0167L17.4722 44.971L17.4494 44.9025V44.8796V44.8568L17.4265 44.8339L17.358 44.6512L17.3352 44.6284V44.6056L17.3123 44.5827L17.2895 44.537L17.2438 44.4228V44.4L17.221 44.3315L17.1296 44.1031V44.0802L17.0611 43.8975L17.0383 43.8519L17.0154 43.7833L16.9469 43.5778H16.9241V43.5549L16.9012 43.4864L16.8556 43.3494L16.8327 43.3265V43.3037L16.8099 43.2123V43.1895L16.787 43.121L16.7414 42.9839H16.7185V42.9154L16.6728 42.7784L16.65 42.7327V42.7099L16.5586 42.4358V42.413L16.5358 42.3673L16.4901 42.1846L16.4673 42.0704L16.3759 41.8191L16.3988 41.7963L16.3759 41.7049H16.3531V41.6821L16.3302 41.6136V41.5679L16.2846 41.3395L16.2617 41.3167V41.2938L16.2389 41.1568L16.2161 41.1339V41.0883V41.0654L16.1475 40.7457V40.7228L16.1247 40.6772L16.1019 40.5858V40.563L16.079 40.4716V40.4488L16.0562 40.266L16.0333 40.1975V40.1747L16.0105 40.0377V40.0148V39.992L15.9648 39.8093L15.9191 39.558V39.421L15.8963 39.3981V39.3525V39.3296V39.3068L15.8735 39.1241V39.0556H15.8506V39.0327L15.8278 38.8728V38.85L15.8049 38.6444V38.5988V38.5759V38.5531L15.7821 38.3247V38.279V38.2562V38.2333L15.7593 38.1648V38.0506V37.9593H15.7364V37.8679V37.8451V37.8222V37.7994L15.7136 37.4796V37.4339V37.4111V37.3654V37.1142H15.6907V37.0685V37.0457V36.7031V36.6802V36.6346V36.3605V36.292C15.6907 33.3228 16.2617 30.5136 17.3352 27.9327C18.4543 25.2605 20.0759 22.8623 22.0858 20.8525C24.0957 18.8426 26.4938 17.221 29.1661 16.1019C31.7469 15.0512 34.5562 14.4574 37.5253 14.4574C40.4716 14.4574 43.2809 15.0512 45.8617 16.1019C48.534 17.221 50.9321 18.8426 52.9648 20.8525C54.9747 22.8623 56.5963 25.2605 57.6926 27.9327C58.7661 30.5136 59.3599 33.3228 59.3599 36.292V36.3605H59.337V36.6346V36.6802V36.7031V37.0457V37.0685V37.1142L59.3142 37.3654V37.4111V37.4339V37.4796L59.2914 37.7994V37.8451V37.8679V37.9593L59.2685 38.0506V38.1648V38.2333V38.2562V38.279H59.2457V38.3247L59.2228 38.5531V38.5759V38.5988V38.6444L59.2 38.85V38.8728L59.1772 39.0327V39.0556L59.1543 39.1241L59.1315 39.3068V39.3296V39.3525V39.3981V39.421L59.1086 39.5352L59.063 39.8093L59.0401 39.992V40.0148L59.0173 40.0377L58.9944 40.1747V40.1975V40.266L58.9488 40.4488V40.4716L58.9259 40.563V40.5858L58.9031 40.6772V40.7228L58.8802 40.7457L58.8117 41.0654V41.0883V41.1339L58.7889 41.1568L58.7661 41.2938V41.3167V41.3395L58.6975 41.5679V41.6136L58.6747 41.6821V41.7049L58.6519 41.7963L58.629 41.842L58.5833 42.0704L58.5605 42.1389L58.4691 42.413V42.4358L58.3778 42.7099L58.3549 42.7784L58.3093 42.9154V42.9383L58.2407 43.121V43.1438L58.1951 43.3037V43.3265L58.1722 43.3494L58.1265 43.4864V43.5093L58.1037 43.5778L58.0809 43.6235L58.0352 43.7377L58.0123 43.7833V43.829L57.9895 43.8519V43.8975L57.921 44.0802H57.8982V44.1031L57.8068 44.3315L57.784 44.4V44.4228L57.7383 44.5142L57.7154 44.5827V44.6056H57.6926V44.6284V44.6512L57.6469 44.7198L57.5556 44.9481L57.487 45.1309L57.4642 45.1765L57.4414 45.2451H57.4185V45.2679V45.2907H57.3957L57.3043 45.5191V45.542L57.2815 45.5877L57.2358 45.6562L57.213 45.7018L57.1444 45.8617L57.1216 45.9074L57.0988 45.9302L57.0531 46.0444L57.0302 46.0673L57.0074 46.1358L56.8932 46.3642H56.8704L56.8475 46.4099V46.4327V46.4556L56.8247 46.4784L56.7333 46.6383V46.6611L56.6191 46.8438L56.5963 46.8895L56.5735 46.958H56.5506V46.9809L56.4364 47.2093L56.2537 47.5062L56.208 47.5518L56.1852 47.6204H56.1623L56.071 47.8031L56.0482 47.8259L55.9796 47.9401L55.9568 47.9858L55.8426 48.1457L55.8198 48.1914L55.7741 48.2599L55.6142 48.5111L55.4543 48.7395L55.4315 48.7623L55.4086 48.7852V48.808L55.3858 48.8309L55.2031 49.0821L55.1802 49.1049V49.1278L54.9975 49.379L54.9747 49.4018C54.9519 49.4247 54.9062 49.4704 54.8605 49.5389L54.792 49.6302L54.7463 49.6988H54.7235V49.7216L54.6778 49.7901L54.6549 49.813L54.6321 49.8358C53.4216 51.366 52.4167 52.6907 51.5944 53.8784C50.7722 55.066 50.1327 56.1167 49.6302 57.1444C49.1963 58.0352 48.8537 58.9031 48.6025 59.8167C48.3741 60.6617 48.2142 61.5296 48.1 62.4889H48.3284H49.2191H49.4932V62.763V63.6537ZM47.1636 69.6833V64.7957H46.8438H28.184H27.9327V69.6833C27.9327 70.3914 28.0469 71.0537 28.2296 71.6932C28.4352 72.3556 28.7321 72.9722 29.1204 73.5204C29.5086 74.0914 29.9654 74.5938 30.5136 75.0278C31.0389 75.4389 31.6327 75.7815 32.2722 76.0327L32.8432 76.2611L33.0031 76.3296V76.5123V77.129V77.6772C33.0031 77.8827 33.0488 78.0654 33.1173 78.2481C33.1858 78.4309 33.3 78.5907 33.437 78.7278C33.5741 78.8648 33.7568 78.979 33.9395 79.0475C34.0994 79.1389 34.3049 79.1617 34.5105 79.1617H40.6543C40.8599 79.1617 41.0654 79.1389 41.2253 79.0475C41.408 78.979 41.5907 78.8648 41.7278 78.7278C41.8648 78.5907 41.979 78.4309 42.0475 78.2481C42.1161 78.0654 42.1617 77.8827 42.1617 77.6772V77.0833V76.4895V76.3068L42.3216 76.2383L42.8926 76.0099C43.5093 75.7586 44.1031 75.416 44.6284 74.9821C45.1537 74.571 45.6105 74.0457 45.9988 73.4975C46.3642 72.9265 46.6611 72.3327 46.8667 71.6704C47.0494 71.0537 47.1636 70.3914 47.1636 69.6833ZM51.3204 22.4969C49.5161 20.6926 47.3691 19.2309 44.971 18.2488C42.687 17.2895 40.1519 16.7642 37.5253 16.7642C34.8759 16.7642 32.3407 17.2895 30.0568 18.2488C27.6586 19.2309 25.5117 20.6926 23.7302 22.4969C21.9259 24.2784 20.4642 26.4481 19.4821 28.8235C18.5228 31.1302 17.9975 33.6426 17.9975 36.292V36.566V36.6117V36.6346V36.6574L18.0204 36.9543V36.9772V37.0228V37.2969V37.3426L18.0432 37.3883V37.4111V37.6395V37.6623V37.6852L18.0661 37.7765L18.0889 37.9821V38.0735V38.1877L18.1117 38.279V38.3932L18.1346 38.4846V38.5988L18.1574 38.7586L18.1802 38.9185L18.2031 39.0784L18.2259 39.2383L18.2488 39.3981V39.421L18.2716 39.4667L18.2944 39.6494L18.3173 39.7864V39.8321L18.363 40.0377L18.3858 40.1062V40.1747L18.4086 40.266L18.4772 40.5858L18.5 40.6315V40.6543V40.7228L18.5228 40.7685V40.8142L18.5914 41.0426L18.6142 41.1111L18.637 41.2253V41.2481L18.6827 41.408L18.7512 41.6364L18.7969 41.7735V41.8191L18.8426 42.0019L18.8883 42.0932L18.934 42.2302L18.9796 42.413L19.0481 42.6185L19.0938 42.7327L19.1623 42.9154L19.1852 42.9839L19.208 43.0296L19.2309 43.0753L19.2765 43.2352V43.258L19.3679 43.4864L19.3907 43.5321L19.4136 43.5549L19.4593 43.6691L19.5278 43.8747L19.5735 43.966L19.5963 44.0346L19.6191 44.0802L19.6877 44.2401L19.7105 44.3086L19.7333 44.3315L19.7562 44.4L19.8019 44.4457L19.8475 44.5827L19.8932 44.6512L20.0074 44.9025L20.0302 44.9481L20.0531 45.0167L20.0759 45.0623L20.1216 45.1309L20.1901 45.2679L20.2358 45.3821L20.3272 45.5191L20.35 45.542L20.4414 45.7247L20.4642 45.7704L20.487 45.8389L20.6241 46.0444V46.0673L20.6469 46.0901L20.6698 46.1358L20.8068 46.3642L20.8525 46.4327L20.9438 46.5926L20.9895 46.6839L21.058 46.7525L21.1494 46.9123L21.2636 47.0951L21.3093 47.1407L21.3321 47.1864L21.492 47.4377L21.5377 47.4833V47.5062L21.7204 47.7346V47.7574L21.9031 47.9858V48.0086L22.0858 48.2142L22.1086 48.2599L22.2914 48.4883C23.5247 50.0414 24.5296 51.3889 25.3747 52.6222C26.2426 53.8784 26.9278 55.0204 27.4759 56.1395C28.0012 57.1901 28.3895 58.2179 28.6864 59.2914C28.9377 60.2735 29.1204 61.3241 29.2574 62.4889H45.7704C45.9074 61.3241 46.0901 60.2735 46.3642 59.2914C46.6383 58.2179 47.0265 57.1901 47.5519 56.1395C48.1 55.0204 48.7852 53.8784 49.6531 52.6222C50.4982 51.3889 51.5259 50.0414 52.7593 48.4654L52.8278 48.3969L52.8963 48.3056V48.2827H52.9191V48.2599L52.942 48.237L53.1019 48.0315L53.1247 47.9858L53.3074 47.7574L53.3302 47.7346L53.4901 47.5062L53.513 47.4833L53.5358 47.4377L53.6957 47.1864H53.7185L53.7642 47.0951L53.8784 46.9123L53.9926 46.7525L54.0383 46.6839L54.084 46.5926L54.1525 46.5012L54.1753 46.4556L54.1982 46.4327L54.221 46.3642L54.2895 46.25L54.4037 46.0901V46.0673V46.0444L54.5407 45.8389L54.5864 45.7704V45.7247L54.7006 45.542V45.5191L54.792 45.3821L54.8605 45.2451L54.9062 45.1309L54.9519 45.0623L54.9747 45.0167L54.9975 44.9481L55.0204 44.9025L55.1346 44.6512L55.1802 44.5827L55.2488 44.4457L55.2944 44.3315V44.3086H55.3173L55.3401 44.2401L55.4086 44.0802L55.4315 44.0346V44.0117L55.4543 43.966L55.4772 43.9432V43.9204L55.5685 43.6691L55.637 43.5549L55.6599 43.4864L55.7512 43.258V43.2123L55.8198 43.0753V43.0525L55.8426 43.0068V42.9839L55.8654 42.9611L55.8883 42.8926L55.934 42.7327L55.9796 42.6185L56.071 42.3673L56.1167 42.2302L56.1623 42.0932V42.0704V42.0475L56.2309 41.8191V41.7963L56.2537 41.7735L56.2994 41.5679L56.3451 41.4309L56.3907 41.2481L56.4364 41.1111V41.0426L56.5049 40.8142V40.7685L56.5278 40.7228L56.5506 40.6543V40.6086V40.5858L56.6191 40.266L56.642 40.1747V40.1062L56.6648 40.0377L56.6877 39.9006L56.7105 39.7864L56.7333 39.6265L56.779 39.3981L56.8019 39.2383L56.8247 39.0784L56.8475 38.9185L56.8704 38.7586L56.8932 38.5988L56.9161 38.4846V38.3932L56.9389 38.279V38.1877V38.0735L56.9617 37.9821V37.7765L56.9846 37.6852V37.6395L57.0074 37.4111V37.3883V37.3426V37.2969V37.0228L57.0302 36.9543V36.6574V36.6346V36.6117V36.566V36.292C57.0302 33.6426 56.5049 31.1302 55.5457 28.8235C54.5636 26.4481 53.1019 24.2784 51.3204 22.4969ZM56.3679 5.77839L51.0235 15.0512L50.9093 15.2796L50.658 15.1426L49.9043 14.7086L49.1278 14.2519L48.8994 14.1377L49.0364 13.8864L54.3809 4.63642L54.5179 4.40802L54.7463 4.54506L55.5 4.97901L55.6827 5.07037L56.2765 5.41296L56.5049 5.55L56.3679 5.77839ZM15.0284 51.0235L5.75556 56.3679L5.52716 56.5049L5.39012 56.2765L4.93333 55.5L4.49938 54.7235L4.36235 54.4951L4.59074 54.358L13.8636 49.0136L14.092 48.8765L14.229 49.1049L14.663 49.8815L14.7315 49.9957L15.1198 50.658L15.2568 50.8864L15.0284 51.0235ZM69.3864 19.6648L60.1364 25.0093L59.908 25.1463L59.771 24.9179L59.3142 24.1414L58.8802 23.3648L58.7432 23.1364L58.9716 22.9994L68.2444 17.6549L68.4728 17.5179L68.6099 17.7463L69.0438 18.5228L69.1123 18.637L69.5006 19.2994L69.6377 19.5278L69.3864 19.6648ZM19.6191 4.63642L24.9636 13.8864L25.1006 14.1377L24.8722 14.2519L24.0957 14.7086L23.3191 15.1426L23.0907 15.2796L22.9537 15.0512L17.6093 5.77839L17.4722 5.55L17.7235 5.41296L18.4772 4.97901L19.2537 4.54506L19.4821 4.40802L19.6191 4.63642ZM60.1364 49.0136L69.3864 54.358L69.6377 54.4951L69.5006 54.7235L69.0438 55.5L68.6099 56.2765L68.4728 56.5049L68.2444 56.3679L58.9716 51.0235L58.7432 50.8864L58.8802 50.658L59.3142 49.8815L59.771 49.1049L59.908 48.8765L60.1364 49.0136ZM5.75556 17.6549L15.0284 22.9994L15.2568 23.1364L15.1198 23.3648L14.663 24.1414L14.229 24.9179L14.092 25.1463L13.8636 25.0093L4.59074 19.6648L4.36235 19.5278L4.49938 19.2994L4.93333 18.5228L5.39012 17.7463L5.52716 17.5179L5.75556 17.6549ZM63.037 35.8352H73.7259H74V36.1093V37V37.8907V38.1648H73.7259H63.037H62.763V37.8907V37V36.1093V35.8352H63.037ZM0.274074 35.8809H10.963H11.237V36.1321V37.0228V37.9136V38.1877H10.963H0.274074H0V37.9136V37.0228V36.1321V35.8809H0.274074Z" fill="#2F74FF"/>
</svg>
