<svg width="85" height="78" viewBox="0 0 85 78" fill="none" xmlns="http://www.w3.org/2000/svg">
<path d="M68.9075 70.3332L71.7245 49.4004C70.5336 51.1639 68.9304 53.3167 66.8692 55.6299C65.1057 57.5995 63.0216 59.7294 60.5481 61.8593L59.4717 62.7754L58.4411 63.6457V63.6686C58.2121 63.8518 57.9144 63.9434 57.6395 63.9205C57.3647 63.9205 57.0899 63.7831 56.8838 63.577L56.1051 62.867V62.8899L55.9906 62.7754L54.9829 61.8593C51.5246 58.6759 48.845 55.5382 46.8296 52.8129C44.9058 50.2249 43.6004 48.0263 42.7759 46.5147C42.3637 47.2934 41.814 48.2324 41.1269 49.3317C40.3482 50.5455 39.4092 51.9426 38.2641 53.4312C37.2335 54.8054 36.0197 56.2711 34.6227 57.7827C33.4088 59.111 32.0576 60.4852 30.5689 61.8593L29.5612 62.7754L28.6222 63.6457C28.3932 63.8289 28.0955 63.9434 27.8207 63.9205C27.5458 63.9205 27.2481 63.806 27.042 63.5999L26.1946 62.867L26.0801 62.7754L25.5762 62.3402L25.0037 61.8593C22.1867 59.4087 19.8506 57.004 17.9268 54.7825C16.2321 52.79 14.8808 50.9578 13.8273 49.4004L16.6443 70.3332H68.9075ZM80.6106 29.0173C80.519 29.1547 80.4045 29.2692 80.29 29.3379C80.1526 29.4295 79.9922 29.4982 79.8548 29.5212C79.6945 29.5441 79.5342 29.5441 79.3739 29.4982C79.2365 29.4753 79.0761 29.4066 78.9616 29.315C78.8242 29.2234 78.7097 29.1089 78.6181 28.9715C78.5494 28.8341 78.4807 28.6967 78.4578 28.5364C78.4349 28.376 78.4349 28.2386 78.4807 28.0783C78.5036 27.918 78.5723 27.7806 78.6639 27.6432L82.8321 21.7114C82.9237 21.5969 83.0383 21.4824 83.1528 21.3908C83.2902 21.3221 83.4505 21.2534 83.5879 21.2305C83.7482 21.2076 83.9085 21.2076 84.0689 21.2305C84.2063 21.2763 84.3666 21.345 84.4811 21.4366C84.6185 21.5282 84.733 21.6427 84.8246 21.7572C84.8934 21.8947 84.9621 22.055 84.985 22.1924C85.0079 22.3527 85.0079 22.513 84.9621 22.6733C84.9392 22.8108 84.8704 22.9711 84.7788 23.0856L80.6106 29.0173ZM64.3041 21.826C64.2583 21.9634 64.1667 22.1008 64.0751 22.2153C63.9835 22.3527 63.8461 22.4443 63.7087 22.513C63.5712 22.5817 63.4109 22.6275 63.2506 22.6504C63.1132 22.6733 62.9529 22.6504 62.7926 22.6046C62.6322 22.5588 62.4948 22.4672 62.3803 22.3756C62.2658 22.2611 62.1742 22.1466 62.0826 22.0092C62.0139 21.8718 61.9681 21.7114 61.9681 21.5511C61.9452 21.4137 61.9681 21.2534 62.0139 21.0931L64.7393 12.5047C64.7851 12.3444 64.8538 12.207 64.9683 12.0925C65.0599 11.9779 65.1973 11.8634 65.3347 11.7947C65.4721 11.726 65.6096 11.6802 65.7699 11.6802C65.9302 11.6573 66.0905 11.6802 66.2279 11.726C66.3882 11.7718 66.5257 11.8405 66.6402 11.955C66.7776 12.0466 66.8692 12.1841 66.9379 12.3215C67.0066 12.4589 67.0524 12.5963 67.0753 12.7566C67.0982 12.9169 67.0753 13.0773 67.0295 13.2147V13.2376L64.3041 21.826ZM23.4463 21.0931C23.4921 21.2534 23.515 21.4137 23.4921 21.5511C23.4921 21.7114 23.4463 21.8718 23.3547 22.0092C23.286 22.1466 23.1944 22.2611 23.0799 22.3756C22.9653 22.4672 22.8279 22.5588 22.6676 22.6046C22.5073 22.6504 22.347 22.6733 22.2096 22.6504C22.0493 22.6275 21.8889 22.5817 21.7515 22.513C21.6141 22.4443 21.4767 22.3527 21.3851 22.2153C21.2935 22.1008 21.2019 21.9634 21.1561 21.826L18.4307 13.2376V13.2147C18.3849 13.0773 18.362 12.9169 18.3849 12.7566C18.4078 12.5963 18.4536 12.4589 18.5223 12.3215C18.591 12.1841 18.6826 12.0466 18.82 11.955C18.9345 11.8405 19.0719 11.7718 19.2094 11.726C19.3697 11.6802 19.53 11.6573 19.6903 11.6802C19.8506 11.6802 19.988 11.726 20.1255 11.7947C20.2629 11.8634 20.4003 11.9779 20.4919 12.0925C20.6064 12.207 20.6751 12.3444 20.7209 12.5047L23.4463 21.0931ZM43.8752 23.7727C43.8752 23.933 43.8294 24.0933 43.7836 24.2307C43.7149 24.3681 43.6233 24.5055 43.5088 24.62C43.3943 24.7346 43.2797 24.8033 43.1194 24.872C42.982 24.9407 42.8217 24.9636 42.6614 24.9636C42.5011 24.9636 42.3408 24.9407 42.2033 24.872C42.0659 24.8033 41.9285 24.7346 41.814 24.62C41.6995 24.5055 41.6308 24.3681 41.5621 24.2307C41.4934 24.0933 41.4705 23.933 41.4705 23.7727V1.19092C41.4705 1.03061 41.4934 0.87029 41.5621 0.732876C41.6079 0.595462 41.6995 0.458047 41.814 0.343536C41.9285 0.229024 42.0659 0.137414 42.2033 0.0916095C42.3408 0.0229024 42.5011 0 42.6614 0C42.8217 0 42.982 0.0229024 43.1194 0.0916095C43.2797 0.137414 43.3943 0.229024 43.5088 0.343536C43.6233 0.458047 43.7149 0.595462 43.7836 0.732876C43.8294 0.87029 43.8752 1.03061 43.8752 1.19092V23.7727ZM6.33823 27.6432C6.42984 27.7806 6.49855 27.918 6.52145 28.0783C6.56725 28.2386 6.56725 28.376 6.54435 28.5364C6.49855 28.6967 6.45274 28.8341 6.36113 28.9715C6.29243 29.1089 6.17791 29.2234 6.0405 29.315C5.90309 29.4066 5.76567 29.4753 5.62826 29.4982C5.46794 29.5441 5.30762 29.5441 5.14731 29.5212C4.98699 29.4982 4.84958 29.4295 4.71216 29.3379C4.57475 29.2692 4.46024 29.1547 4.36863 29.0173L0.223298 23.0856C0.131689 22.9711 0.0629815 22.8108 0.0171768 22.6733C-0.00572559 22.513 -0.00572559 22.3527 0.0171768 22.1924C0.0400791 22.055 0.108786 21.8947 0.177493 21.7572C0.269103 21.6427 0.383615 21.5282 0.498126 21.4366C0.635541 21.345 0.772955 21.2763 0.933271 21.2305C1.09359 21.2076 1.2539 21.2076 1.39132 21.2305C1.55164 21.2534 1.71195 21.3221 1.82646 21.3908C1.96388 21.4824 2.07839 21.5969 2.17 21.7114L6.33823 27.6432ZM15.4305 77.6619C15.1098 77.6619 14.835 77.5245 14.6289 77.3184C14.4228 77.1123 14.2854 76.8374 14.2854 76.5168C14.2854 76.2191 14.4228 75.9213 14.6289 75.7152C14.835 75.5091 15.1098 75.3946 15.4305 75.3946L70.2358 75.3488C70.5565 75.3488 70.8313 75.4862 71.0374 75.6923C71.2435 75.8984 71.381 76.1733 71.381 76.4939C71.381 76.8145 71.2435 77.0894 71.0374 77.2955C70.8313 77.5016 70.5565 77.639 70.2358 77.639L15.4305 77.6619ZM11.1019 33.5291C11.8806 33.5291 12.6364 33.6894 13.3006 33.9642C14.0105 34.2619 14.6518 34.6742 15.1785 35.2238C15.7053 35.7506 16.1404 36.369 16.4153 37.0789C16.713 37.766 16.8504 38.4989 16.8504 39.2776C16.8504 40.0562 16.713 40.7891 16.4153 41.4762C16.1404 42.1862 15.7053 42.8045 15.1785 43.3542C14.9266 43.6061 14.6289 43.8351 14.3312 44.0413C14.0563 44.2245 13.7815 44.3848 13.5067 44.5222C14.1479 45.7131 15.4076 47.8889 17.4459 50.5684C19.5758 53.3625 22.5302 56.7063 26.4923 60.1416L27.5687 61.0577L27.6832 61.1493H27.6603L27.8207 61.2867L28.0268 61.0806L29.0345 60.1874C30.5689 58.7675 31.966 57.3475 33.2027 55.9734C34.4394 54.6221 35.5158 53.2938 36.4548 52.0571C37.7145 50.4081 38.6993 48.9424 39.478 47.6827C40.8521 45.4612 41.5392 43.9496 41.6995 43.6061C41.6995 43.5832 41.7224 43.5374 41.7224 43.5145C41.1956 43.4229 40.6918 43.2397 40.2108 42.9877C39.6612 42.7129 39.1802 42.3465 38.7451 41.9342C38.2183 41.3846 37.7832 40.7662 37.4855 40.0562C37.2106 39.3692 37.0503 38.6363 37.0503 37.8576C37.0503 37.0789 37.2106 36.3461 37.4855 35.659C37.7832 34.949 38.2183 34.3306 38.7451 33.8039C39.2718 33.2542 39.9131 32.842 40.6002 32.5443C41.2872 32.2694 42.0201 32.1091 42.7988 32.1091C43.5775 32.1091 44.3333 32.2694 44.9974 32.5443C45.7074 32.842 46.3487 33.2542 46.8754 33.8039C47.4022 34.3306 47.8373 34.949 48.1121 35.659C48.4099 36.3461 48.5473 37.0789 48.5473 37.8576C48.5473 38.6363 48.4099 39.3692 48.1121 40.0562C47.8373 40.7662 47.4022 41.3846 46.8754 41.9342C46.4403 42.3694 45.9364 42.7358 45.3639 43.0106C44.8829 43.2397 44.3791 43.4229 43.8294 43.5145C43.8752 43.629 44.7455 45.6902 46.7609 48.782C48.7992 51.851 51.9368 55.9734 56.5402 60.1874L56.9983 60.5997L57.525 61.0806L57.6166 61.1722V61.1951L57.7311 61.2867L57.9831 61.0577L59.0595 60.1416C62.2658 57.3704 64.808 54.645 66.8005 52.2174C70.0068 48.3011 71.7245 45.1635 72.32 43.9725C71.9764 43.858 71.6558 43.6748 71.3581 43.4916C70.9916 43.2626 70.671 42.9877 70.3733 42.69C69.8465 42.1633 69.4114 41.522 69.1136 40.8349C68.8388 40.1479 68.6785 39.415 68.6785 38.6363C68.6785 37.8576 68.8388 37.1018 69.1136 36.4377C69.4114 35.7277 69.8465 35.0864 70.3733 34.5597C70.9 34.0329 71.5413 33.5978 72.2512 33.3C72.9154 33.0252 73.6712 32.8649 74.427 32.8649C75.2056 32.8649 75.9614 33.0252 76.6256 33.3C77.3356 33.5978 77.9768 34.0329 78.5036 34.5597C79.0303 35.0864 79.4655 35.7277 79.7632 36.4377C80.038 37.1018 80.1984 37.8576 80.1984 38.6363C80.1984 39.415 80.038 40.1479 79.7632 40.8349C79.4655 41.522 79.0303 42.1633 78.5036 42.69C77.9997 43.2168 77.3814 43.629 76.6943 43.9267C76.0759 44.1787 75.4118 44.339 74.7018 44.3848L71.0374 71.547C71.0145 71.8447 70.8771 72.1196 70.671 72.3028C70.4649 72.5089 70.19 72.6234 69.8923 72.6234H15.6595H15.4992V72.6005C15.2702 72.5776 15.064 72.486 14.9037 72.3257C14.6976 72.1654 14.5602 71.9134 14.5373 71.6386L10.9416 45.0261C10.2087 45.0032 9.52166 44.8657 8.9033 44.5909C8.19332 44.2932 7.57496 43.8809 7.0482 43.3542C6.52145 42.8045 6.0863 42.1862 5.78857 41.4762C5.51375 40.7891 5.35343 40.0562 5.35343 39.2776C5.35343 38.4989 5.51375 37.766 5.78857 37.0789C6.0863 36.369 6.52145 35.7506 7.0482 35.2238C7.57496 34.6742 8.21622 34.2619 8.9033 33.9642C9.59037 33.6894 10.3232 33.5291 11.1019 33.5291ZM13.5754 36.827C13.2547 36.5064 12.8654 36.2315 12.4303 36.0712C12.0409 35.888 11.5829 35.7964 11.1019 35.7964C10.6439 35.7964 10.1858 35.888 9.77359 36.0712C9.36134 36.2315 8.972 36.5064 8.65137 36.827C8.33074 37.1476 8.07881 37.5141 7.89559 37.9492C7.73527 38.3615 7.64367 38.7966 7.64367 39.2776C7.64367 39.7585 7.73527 40.1937 7.89559 40.6059C8.07881 41.041 8.33074 41.4304 8.65137 41.751C8.972 42.0487 9.36134 42.3236 9.77359 42.4839C10.1858 42.6671 10.6439 42.7587 11.1019 42.7587C11.5829 42.7587 12.0409 42.6671 12.4303 42.4839C12.8654 42.3236 13.2547 42.0487 13.5754 41.751C13.8731 41.4304 14.1479 41.041 14.3083 40.6059C14.4915 40.1937 14.5831 39.7585 14.5831 39.2776C14.5831 38.7966 14.4915 38.3615 14.3083 37.9492C14.1479 37.5141 13.8731 37.1476 13.5754 36.827ZM76.9004 36.1628C76.5798 35.8422 76.1905 35.5903 75.7782 35.4071C75.366 35.2467 74.9079 35.1551 74.427 35.1551C73.9689 35.1551 73.5109 35.2467 73.0986 35.4071C72.6864 35.5903 72.297 35.8422 71.9764 36.1628C71.6558 36.4835 71.4039 36.8728 71.2206 37.2851C71.0603 37.6973 70.9687 38.1553 70.9687 38.6363C70.9687 39.0943 71.0603 39.5524 71.2206 39.9646C71.4039 40.3769 71.6558 40.7662 71.9764 41.0868C72.297 41.4075 72.6864 41.6594 73.0986 41.8426C73.5109 42.0029 73.9689 42.0946 74.427 42.0946C74.9079 42.0946 75.366 42.0029 75.7782 41.8426C76.1905 41.6594 76.5798 41.4075 76.9004 41.0868C77.2211 40.7662 77.473 40.3769 77.6562 39.9646C77.8165 39.5524 77.9081 39.0943 77.9081 38.6363C77.9081 38.1553 77.8165 37.6973 77.6562 37.2851C77.473 36.8728 77.2211 36.4835 76.9004 36.1628ZM45.2723 35.4071C44.9516 35.0864 44.5623 34.8116 44.1271 34.6513C43.7378 34.4681 43.2797 34.3765 42.7988 34.3765C42.3408 34.3765 41.8827 34.4681 41.4705 34.6513C41.0582 34.8116 40.6689 35.0864 40.3482 35.4071C40.0276 35.7277 39.7757 36.0941 39.5925 36.5293C39.4322 36.9415 39.3405 37.3767 39.3405 37.8576C39.3405 38.3386 39.4322 38.7737 39.5925 39.186C39.7757 39.6211 40.0276 40.0104 40.3482 40.3311C40.6689 40.6288 41.0582 40.9036 41.4705 41.0639C41.8827 41.2472 42.3408 41.3388 42.7988 41.3388C43.2797 41.3388 43.7378 41.2472 44.1271 41.0639C44.5623 40.9036 44.9516 40.6288 45.2723 40.3311C45.57 40.0104 45.8448 39.6211 46.0051 39.186C46.1883 38.7737 46.28 38.3386 46.28 37.8576C46.28 37.3767 46.1883 36.9415 46.0051 36.5293C45.8448 36.0941 45.57 35.7277 45.2723 35.4071Z" fill="#2F74FF"/>
</svg>
