<svg width="80" height="85" viewBox="0 0 80 85" fill="none" xmlns="http://www.w3.org/2000/svg">
<path d="M2.5956 65.2144V70.3592C2.5956 70.6373 2.781 70.9618 3.03592 71.2399C3.29085 71.4948 3.56895 71.6802 3.82387 71.6802H76.7092C76.8482 71.6802 76.9873 71.5875 77.1031 71.4484C77.2885 71.2167 77.4044 70.8459 77.4044 70.4519V65.2144H2.5956ZM29.3859 47.9258L25.8401 52.3523L25.0985 53.2561L24.1251 52.6304L21.7845 51.124L23.175 48.9455L24.5423 49.8262L27.3696 46.3036L29.3859 47.9258ZM31.9119 51.8888H54.9247V54.4844H31.9119V51.8888ZM31.9119 46.0023H54.9247V48.5979H31.9119V46.0023ZM29.3859 32.7462L25.8401 37.1727L25.0985 38.0765L24.1251 37.4508L21.7845 35.9676L23.175 33.7891L24.5423 34.6466L27.3696 31.124L29.3859 32.7462ZM31.9119 36.7323H54.9247V39.3279H31.9119V36.7323ZM31.9119 30.8227H54.9247V33.4183H31.9119V30.8227ZM29.3859 17.5898L25.8401 22.0162L25.0985 22.92L24.1251 22.2943L21.7845 20.7879L23.175 18.6095L24.5423 19.4901L27.3696 15.9676L29.3859 17.5898ZM31.9119 21.5527H54.9247V24.1483H31.9119V21.5527ZM31.9119 15.6431H54.9247V18.2387H31.9119V15.6431ZM52.9085 0V12.5377H65.5388L52.9085 0ZM55.5041 6.23407L59.2584 9.94206H55.5041V6.23407ZM50.6373 2.82735H17.3812V14.4844V31.5643V56.4774H17.7057V59.073H7.34647H6.04867V57.7752V23.0359V21.7381H7.34647H11.0081V24.3337H8.64426V56.4774H14.7856V31.5643V14.4844V1.52955V0.23175H16.0834H50.6373V2.82735ZM62.7115 56.4774V31.5643V15.5968H65.3071V31.5643V56.4774H71.2399V24.3337H68.9687V21.7381H72.5377H73.8355V23.0359V57.7752V59.073H72.5377H62.4102V56.4774H62.7115ZM11.0081 18.2387H3.40672C3.17497 18.2387 2.9664 18.3314 2.82735 18.4705C2.66512 18.6095 2.57242 18.8181 2.57242 19.0498V62.5724H77.3812V19.0498C77.3812 18.8181 77.2885 18.6095 77.1495 18.4705C76.9873 18.3314 76.7787 18.2387 76.5469 18.2387H68.9687V15.6431H76.5469C77.4971 15.6431 78.3546 16.0139 78.9571 16.6396C79.5829 17.2654 79.9768 18.0997 79.9768 19.0498V62.5724H80V63.8702V70.4519C80 71.4021 79.6756 72.3523 79.1194 73.0707C78.54 73.7891 77.7289 74.2758 76.7092 74.2758H49.8957C49.8957 74.7161 49.8725 75.1796 49.8725 75.6895C49.8494 77.1495 49.8262 78.7717 50.0116 79.7219C50.2202 80.6721 50.2897 80.7184 50.6373 80.927L50.7068 80.9502C50.9386 81.0892 51.2399 81.2283 51.5643 81.3673C51.7265 81.4368 51.8888 81.5064 52.0278 81.5759H54.3221V84.1715H51.6107L51.5875 84.2178L51.518 84.1715H28.3662L28.3198 84.1947L28.2966 84.1715H25.6779V81.5759H27.8331C28.0417 81.5064 28.2271 81.4137 28.4125 81.321C28.737 81.1819 28.9919 81.0429 29.1773 80.9502L29.2932 80.8806C29.6408 80.6952 29.7335 80.6489 29.9189 79.7219C30.1043 78.7717 30.0811 77.1031 30.0579 75.6199C30.0579 75.1564 30.0579 74.6929 30.0579 74.2758H3.82387C2.82735 74.2758 1.87717 73.7659 1.18192 73.0475C0.463499 72.3059 0 71.3094 0 70.3592V65.2144V63.9166V19.0498C0 18.0997 0.3708 17.2654 0.996524 16.6396C1.62225 16.0139 2.47972 15.6431 3.40672 15.6431H11.0081V18.2387ZM32.1205 81.5759H47.81C47.6941 81.2514 47.6014 80.8111 47.4855 80.2086C47.2538 79.0498 47.2769 77.2653 47.3001 75.6663C47.3001 75.1796 47.3001 74.6929 47.3001 74.2758H32.6304C32.6304 74.6698 32.6535 75.1333 32.6535 75.5968C32.6767 77.2422 32.6999 79.0498 32.4681 80.2086C32.3523 80.8111 32.2364 81.2514 32.1205 81.5759Z" fill="#2F74FF"/>
</svg>
