<svg width="106" height="100" viewBox="0 0 106 100" fill="none" xmlns="http://www.w3.org/2000/svg">
<path d="M16.5141 33.861L31.2472 41.0772L33.5601 42.2106L31.2472 43.3439L16.5141 50.5601L14.6869 51.4621V49.4499V34.9943V32.959L16.5141 33.861ZM27.8473 42.2106L17.2079 37.0066V47.4146L27.8473 42.2106Z" fill="#2F74FF"/>
<path d="M68.8549 13.7386C69.1325 13.6461 69.4563 13.6461 69.757 13.7849H69.7801L84.0969 20.631L89.856 17.8787L90.7349 17.4624L91.5676 17.0692L96.0777 14.9182L69.942 2.45167C69.9189 2.42854 69.8726 2.42854 69.8263 2.42854C69.757 2.40541 69.6413 2.40541 69.5488 2.42854C69.4332 2.42854 69.3175 2.45167 69.2019 2.4748C69.1093 2.49793 69.0168 2.52106 68.9243 2.56731L43.0199 14.9182L49.2647 17.8787L50.1436 18.295L69.1787 27.3616C69.2019 27.3847 69.225 27.3847 69.2713 27.3847C69.3638 27.4078 69.4563 27.4078 69.5719 27.4078C69.6876 27.3847 69.8032 27.3847 69.9189 27.3384C70.0114 27.3153 70.1039 27.2922 70.1964 27.2459L72.7637 26.0201L72.8562 25.9969L72.8794 25.9738L81.2752 21.9725L68.7393 15.9821C68.4386 15.8433 68.2304 15.5889 68.1148 15.2882C68.0223 14.9876 68.0223 14.6638 68.1611 14.3631C68.323 14.0624 68.5543 13.8542 68.8549 13.7386ZM48.4321 33.7683V20.1685L40.5913 16.4216C40.4757 16.3753 40.3601 16.3059 40.2444 16.2134C40.1288 16.1209 40.0363 16.0284 39.9437 15.9359C39.8281 15.7739 39.7356 15.5889 39.6662 15.4039C39.6199 15.2189 39.5968 15.0107 39.5968 14.8257C39.6199 14.6406 39.6662 14.4787 39.7356 14.3168C39.805 14.1549 39.8975 14.0161 40.0131 13.8774C40.1288 13.7617 40.2444 13.6461 40.3832 13.5304C40.522 13.4379 40.6839 13.3454 40.8458 13.276L67.8835 0.393192C68.1148 0.277547 68.3461 0.185032 68.6236 0.138774C68.8781 0.0693869 69.1556 0.023129 69.41 0C69.6876 0 69.9651 0 70.2427 0.0462579C70.4971 0.0925158 70.7515 0.161903 70.9597 0.254419H70.9828L98.5294 13.3917C98.645 13.4611 98.7607 13.5304 98.8763 13.5998C98.9688 13.6923 99.0845 13.7849 99.1539 13.8774C99.2926 14.0624 99.3851 14.2243 99.4545 14.4093C99.5008 14.5944 99.5239 14.8025 99.5008 15.0107C99.5008 15.1726 99.4545 15.3345 99.3851 15.4964C99.3158 15.6583 99.2232 15.7971 99.1076 15.9359C98.992 16.0515 98.8763 16.1671 98.7144 16.2828C98.5756 16.3753 98.4369 16.4678 98.2518 16.5603H98.275L91.5676 19.7521V33.537V33.5832V33.6064V33.6989V33.722L91.5907 33.7914C91.5907 34.2771 91.475 34.7628 91.29 35.2254C91.0819 35.6649 90.8043 36.1043 90.4342 36.5206C90.1336 36.8676 89.7866 37.1682 89.3934 37.4689C89.0696 37.7233 88.7227 37.9315 88.3758 38.1628V38.2322C88.3758 38.8566 88.237 39.458 88.0057 40.0131C87.7744 40.5913 87.4275 41.1002 86.988 41.5396C86.5486 41.9559 86.0397 42.3029 85.4615 42.5342C84.9064 42.7654 84.3051 42.9042 83.6806 42.9042C83.0561 42.9042 82.4548 42.7654 81.8997 42.5342C81.3214 42.3029 80.8126 41.9559 80.3731 41.5396C80.2344 41.4008 80.0956 41.2389 79.98 41.077C79.9337 41.0308 79.9106 40.9845 79.8643 40.9383C79.263 41.0539 78.6153 41.1464 77.9677 41.2389C77.2045 41.3314 76.395 41.424 75.5623 41.5165C74.6603 41.5859 73.7351 41.6553 72.81 41.7015C71.8848 41.7478 70.9365 41.7709 70.0345 41.7709C67.2822 41.7709 64.6455 41.5859 62.24 41.2621C59.719 40.9151 57.4524 40.4294 55.5095 39.8049C53.4973 39.1573 51.832 38.3478 50.6524 37.4458C49.4497 36.5206 48.7096 35.4798 48.5246 34.3465L48.5014 34.3002L48.4783 34.2309V34.2077C48.4552 34.1383 48.4552 34.069 48.4321 33.9764C48.4321 33.9071 48.4321 33.8377 48.4321 33.7683ZM68.1379 29.5588L50.8375 21.3018V33.5832L50.8837 33.6295V33.7683L50.9069 33.9071C50.9531 34.4853 51.4388 35.0866 52.2483 35.6649C53.1966 36.3356 54.5612 36.9601 56.2496 37.492C58.0537 38.0934 60.2047 38.556 62.587 38.8798C64.8536 39.1805 67.3747 39.3424 70.0345 39.3424C70.9828 39.3424 71.8848 39.3192 72.7406 39.2961C73.6426 39.2498 74.5215 39.1805 75.3542 39.1111C76.0712 39.0417 76.7882 38.9723 77.5052 38.8566C78.014 38.7873 78.5228 38.7179 79.0085 38.6254C79.0085 38.5328 79.0085 38.4403 78.9854 38.3247V38.2784V38.2322C78.9854 37.5846 79.1242 36.9832 79.3555 36.4281C79.5868 35.873 79.9337 35.3642 80.3731 34.9247L80.4425 34.8553L80.4657 34.8322L80.4888 34.8091L80.5119 34.786L80.5582 34.7397H80.5813L80.6044 34.7166V34.6934H80.6276L80.6507 34.6703V34.6472H80.6738L80.697 34.624L80.7432 34.6009L80.7663 34.5778L80.8357 34.5084L80.8589 34.4853L80.9051 34.4621L80.9514 34.439V34.4159H80.9745L81.0208 34.3696H81.0439L81.067 34.3465L81.1133 34.3234L81.1364 34.3002L81.2289 34.2309H81.252H81.2752L81.3446 34.1846L81.414 34.1383L81.4833 34.0921H81.5065L81.599 34.0458L81.6452 34.0227L81.6684 33.9996H81.6915L81.7146 33.9764H81.7378L81.7609 33.9533L81.8534 33.9302L81.8765 33.9071L81.969 33.8839L82.0616 33.8377H82.0847L82.1078 33.8145L82.2003 33.7914H82.2235L82.316 33.7451H82.3391H82.3854L82.4548 33.722L82.4779 33.6989L82.501 24.0772L73.8045 28.2173L73.6658 28.2636L71.2372 29.4432C71.0059 29.5357 70.7515 29.6282 70.4971 29.6976C70.2427 29.7438 69.9651 29.7901 69.7107 29.8132C69.4332 29.8364 69.1556 29.8132 68.8781 29.767C68.6005 29.7207 68.3461 29.6513 68.1379 29.5588ZM87.6588 35.7574C87.7744 35.6649 87.8901 35.5723 88.0057 35.4798C88.2601 35.2948 88.4683 35.1098 88.6302 34.9247C88.8152 34.7166 88.954 34.5084 89.0465 34.3002C89.1159 34.1383 89.1622 33.9764 89.1622 33.7914V33.7683V33.6758V33.6295L89.139 33.5832V33.5601V20.8854L84.9064 22.9208L84.8833 33.722C85.1146 33.7683 85.3459 33.8608 85.554 33.9533C85.9241 34.1152 86.2942 34.3234 86.5948 34.5778H86.618L86.6411 34.6009L86.6642 34.624C86.8493 34.786 87.0343 34.971 87.1962 35.1329V35.156C87.3581 35.341 87.52 35.5261 87.6588 35.7574ZM85.1146 36.4744L85.0915 36.4512H85.0683L85.0452 36.4281L85.0221 36.405C84.8602 36.2893 84.6983 36.1968 84.5132 36.1274C84.3513 36.058 84.1894 36.0118 84.0275 35.9887H84.0044H83.9581H83.935H83.9119H83.8656L83.8425 35.9655H83.8194H83.7962H83.7268H83.6806C83.3568 35.9655 83.0792 36.0349 82.8017 36.1506C82.5241 36.2662 82.2697 36.4281 82.0616 36.6363C81.8765 36.8444 81.6915 37.0757 81.5759 37.3533C81.4833 37.6308 81.414 37.9084 81.414 38.2322C81.414 38.5328 81.4833 38.8335 81.5759 39.0879C81.6915 39.3655 81.8765 39.6199 82.0616 39.8281C82.2929 40.0362 82.5241 40.1981 82.8017 40.3138C83.0792 40.4063 83.3568 40.4757 83.6806 40.4757C83.9813 40.4757 84.2819 40.4063 84.5595 40.3138C84.837 40.1981 85.0683 40.0362 85.2765 39.8281C85.4846 39.6199 85.6697 39.3655 85.7853 39.0879C85.8778 38.8335 85.9472 38.5328 85.9472 38.2322C85.9472 38.1396 85.9472 38.0471 85.9241 37.9777C85.9241 37.8852 85.901 37.8158 85.901 37.7233L85.8778 37.6771V37.6539L85.8547 37.6077V37.5846V37.5614L85.8316 37.5383V37.492C85.7622 37.2839 85.6466 37.0988 85.5309 36.9369C85.4153 36.7519 85.2765 36.59 85.1146 36.4744Z" fill="#2F74FF"/>
<path d="M89.1852 53.7979H90.6886C94.8981 53.7979 98.7144 55.5094 101.49 58.2849C104.265 61.0603 106 64.8766 106 69.0861C106 73.2956 104.265 77.1118 101.49 79.8873C98.7144 82.6628 94.8981 84.3743 90.6886 84.3743H89.1852V81.8533H90.6886C94.2042 81.8533 97.396 80.4193 99.7089 78.1064C102.022 75.7935 103.456 72.6017 103.456 69.0861C103.456 65.5705 102.022 62.3787 99.7089 60.0658C97.4885 57.8454 94.4587 56.4346 91.1281 56.3189H72.0004C70.4508 56.3189 69.0399 55.6944 68.0223 54.6768C67.0046 53.6591 66.357 52.2482 66.357 50.6754V49.3802V47.7612V44.2919H68.9012V47.7612V49.3802V50.6754C68.9012 51.5312 69.2481 52.3176 69.8032 52.8958C70.3583 53.4509 71.1447 53.7979 72.0004 53.7979H89.1852ZM6.96182 23.6377H37.5614C39.4811 23.6377 41.2158 24.4241 42.4648 25.673C43.7369 26.9451 44.5232 28.6798 44.5232 30.5995V50.9299L51.9476 58.7012L53.983 60.8291H51.0225H37.5614H26.7833H6.96182C5.04211 60.8291 3.30744 60.0658 2.05848 58.7937C0.786384 57.5447 0 55.7869 0 53.8672V30.5995C0 28.6798 0.786384 26.9451 2.05848 25.673C3.30744 24.4241 5.04211 23.6377 6.96182 23.6377ZM37.5614 26.1588H6.96182C5.75911 26.1588 4.64892 26.6676 3.83941 27.454C3.02989 28.2635 2.52106 29.3737 2.52106 30.5995V53.8672C2.52106 55.0931 3.02989 56.2033 3.83941 57.0128C4.64892 57.8223 5.75911 58.308 6.96182 58.308H26.7833H37.5614H48.0851L42.3491 52.2945L42.0022 51.9475V51.4387V30.5995C42.0022 29.3737 41.4933 28.2635 40.6838 27.454C39.8743 26.6676 38.7641 26.1588 37.5614 26.1588Z" fill="#2F74FF"/>
<path d="M25.1643 64.9463H86.8029C87.89 64.9463 88.8845 65.3857 89.6015 66.1027C90.3185 66.8197 90.758 67.8143 90.758 68.9013V95.9853C90.758 97.0724 90.3185 98.067 89.6015 98.784C88.8845 99.501 87.89 99.9404 86.8029 99.9404H25.1643C24.0772 99.9404 23.0827 99.501 22.3657 98.784C21.6487 98.067 21.2092 97.0724 21.2092 95.9853V68.9013C21.2092 67.8143 21.6487 66.8197 22.3657 66.1027C23.0827 65.3857 24.0772 64.9463 25.1643 64.9463ZM75.4929 89.5092L82.7785 89.5324V92.0534L75.4929 92.0303V89.5092ZM75.516 81.6223L82.8016 81.6454V84.1665L75.516 84.1433V81.6223ZM75.5391 73.7353H82.8248V76.2563H75.5391V73.7353ZM63.9053 89.5324L71.1909 89.5555V92.0534H69.3406V92.0997L40.7532 92.0766V89.5555L52.3177 89.5786V89.5555H59.6033V89.5786H63.9053V89.5324ZM63.9284 81.6454H71.214V84.1665H63.9284V81.6454ZM63.9515 73.7353L71.2372 73.7584V76.2795L63.9515 76.2563V73.7353ZM52.3408 81.6454L59.6264 81.6685V84.1896L52.3408 84.1665V81.6454ZM52.3639 73.7584L59.6496 73.7816V76.2795H52.3639V73.7584ZM40.7763 81.6685L48.0388 81.6917V84.1896H40.7763V81.6685ZM40.7763 73.7816H48.0619V76.3026L40.7763 76.2795V73.7816ZM29.1656 89.5555H36.4281V92.0766L29.1656 92.0534V89.5555ZM29.1887 81.6454L36.4512 81.6685V84.1896L29.1887 84.1665V81.6454ZM29.2118 73.7584L36.4743 73.7816V76.2795H29.2118V73.7584ZM86.8029 67.4673H25.1643C24.7711 67.4673 24.401 67.6292 24.1466 67.8837C23.8922 68.1381 23.7303 68.5081 23.7303 68.9013V95.9853C23.7303 96.3785 23.8922 96.7255 24.1466 97.003C24.401 97.2574 24.7711 97.4193 25.1643 97.4193H86.8029C87.1961 97.4193 87.5662 97.2574 87.8206 97.003C88.075 96.7486 88.2369 96.3785 88.2369 95.9853V68.9013C88.2369 68.5081 88.075 68.1381 87.8206 67.8837C87.5662 67.6292 87.1961 67.4673 86.8029 67.4673Z" fill="#2F74FF"/>
</svg>
