<svg width="68" height="70" viewBox="0 0 68 70" fill="none" xmlns="http://www.w3.org/2000/svg">
<path fill-rule="evenodd" clip-rule="evenodd" d="M11.0146 41.5236V27.1447L60.2115 27.1217V33.2511V35.3941V41.5236H11.0146ZM57.815 24.0569V14.3097H58.898H59.958V24.0569H59.2897H58.898H57.815ZM13.388 44.6113V59.958H39.5188H39.7953L40.0488 60.0962L43.2979 61.9397L50.0264 65.7879V61.018V59.958H51.1095H57.815V44.6113H58.898H59.958V61.018V62.101H58.898H52.1694V67.6313V69.4748L50.5795 68.553L42.2379 63.8062L39.2423 62.101H12.305H11.245V61.018V44.6113H12.305H13.388ZM62.2853 39.0349H62.631H65.857C65.857 38.9888 65.88 38.9197 65.88 38.8506V29.8177C65.88 29.7486 65.857 29.6794 65.857 29.6103H62.3084H62.2853V28.5503V27.4903H66.0874C66.7096 27.4903 67.2396 27.8129 67.5852 28.3429C67.8387 28.7347 68 29.2647 68 29.8177V38.8506C68 39.4036 67.8387 39.9336 67.5852 40.3253C67.2165 40.8553 66.7096 41.1779 66.0874 41.1779H62.2853V40.1179V39.0349ZM10.9454 41.247H10.5998H10.2772L10.0007 41.0627L1.31345 35.2098L0 34.3341L1.31345 33.4354L10.0007 27.5825L10.2772 27.3982H10.5998H10.9454V29.5412H10.9224L3.82514 34.3341L10.9224 39.1271H10.9454V41.247ZM18.2962 50.7408H51.1095V51.8007V52.8838H18.2962V51.8007V51.409V50.7408ZM18.2962 44.9109H51.1095V45.9709V47.0539H18.2962V45.9709V45.5791V44.9109ZM18.2962 21.6144H51.1095V22.6743V23.7343H18.2962V22.6743V22.2826V21.6144ZM18.2962 15.7845H51.1095V16.8445V17.9275H18.2962V16.8445V16.4527V15.7845ZM18.5496 9.95459H32.3524V11.0376V12.0976H18.5496V11.0376V10.6228V9.95459ZM48.0908 0V12.1437H60.3958L48.0908 0ZM50.2338 5.11555L55.1881 10.0007H50.2338V5.11555ZM45.9017 2.55778H44.6804H13.388V14.0332V23.3426V24.0569H12.305H11.245V14.0332V1.4978V0.414775H12.305H45.9017V1.4978V1.75127V2.55778ZM58.0685 35.3941H13.0884V39.3805H58.0685V35.3941ZM13.0884 33.2511H58.0685V29.2647H13.0884V33.2511Z" fill="#2F74FF"/>
</svg>
