<svg width="47" height="47" viewBox="0 0 47 47" fill="none" xmlns="http://www.w3.org/2000/svg">
<path d="M24.9734 0V15.6332H20.1377V0H24.9734Z" fill="#090942"/>
<path d="M22.7211 24.0459V46.767H17.8854V32.3262L17.3555 32.8561V32.9224L7.88285 42.395V42.3288L7.75036 42.4613L4.372 39.0167L14.4408 28.9478H0V24.0459H20.9988H22.7211Z" fill="#0077FF"/>
<path d="M31.3326 21.9922H46.9658V26.8279H31.3326V21.9922Z" fill="#090942"/>
<path d="M7.02175 5.43164L18.0842 16.4941L14.6396 19.8725L3.57715 8.87625L7.02175 5.43164Z" fill="#090942"/>
<path d="M30.4715 28.8818L41.5339 39.9443L38.0893 43.3889L27.0269 32.3264L30.4715 28.8818Z" fill="#090942"/>
<path d="M41.5339 8.87625L30.4715 19.8725L27.0269 16.4941L38.0893 5.43164L41.5339 8.87625Z" fill="#090942"/>
</svg>
