<svg width="229" height="47" viewBox="0 0 229 47" fill="none" xmlns="http://www.w3.org/2000/svg">
<path d="M24.9734 0V15.6332H20.1377V0H24.9734Z" fill="white"/>
<path d="M22.7211 24.0459V46.767H17.8854V32.3262L17.3555 32.8561V32.9224L7.88285 42.395V42.3288L7.75036 42.4613L4.372 39.0167L14.4408 28.9478H0V24.0459H20.9988H22.7211Z" fill="#0077FF"/>
<path d="M31.3326 21.9922H46.9658V26.8279H31.3326V21.9922Z" fill="white"/>
<path d="M7.02175 5.43164L18.0842 16.4941L14.6396 19.8725L3.57715 8.87625L7.02175 5.43164Z" fill="white"/>
<path d="M30.4715 28.8818L41.5339 39.9443L38.0893 43.3889L27.0269 32.3264L30.4715 28.8818Z" fill="white"/>
<path d="M41.5339 8.87625L30.4715 19.8725L27.0269 16.4941L38.0893 5.43164L41.5339 8.87625Z" fill="white"/>
<path fill-rule="evenodd" clip-rule="evenodd" d="M51.9341 10.5988V13.9109H55.9086V24.6422H59.552V13.9109H63.5265V10.5988H51.9341ZM63.9902 17.6205C63.9902 21.5288 66.5074 24.9072 71.5418 24.9072C76.51 24.9072 79.0272 21.5288 79.0272 17.6205C79.0272 13.7122 76.51 10.2676 71.5418 10.2676C66.5074 10.2676 63.9902 13.7122 63.9902 17.6205ZM75.2514 17.6205C75.2514 19.8727 73.9266 21.5288 71.5418 21.5288C69.0909 21.5288 67.8323 19.8727 67.8323 17.6205C67.8323 15.3682 69.0909 13.7122 71.5418 13.7122C73.9266 13.7122 75.2514 15.3682 75.2514 17.6205ZM92.4082 24.6422V10.5988H88.6986V16.5606C87.9037 16.8918 87.1088 17.0243 86.3801 17.0243C85.1215 17.0243 84.0616 16.4944 84.0616 15.302V10.5988H80.3521V15.5007C80.3521 18.8128 82.4056 20.4027 85.4527 20.4027C86.4464 20.4027 87.5725 20.2039 88.6986 19.8727V24.6422H92.4082ZM98.7675 24.6422V19.2103H100.49L103.934 24.6422H108.041L103.404 17.4218L107.843 10.5988H103.736L100.556 15.8982H98.7675V10.5988H95.0579V24.6422H98.7675ZM111.751 24.6422L112.546 22.3899H118.309L119.104 24.6422H122.946L117.448 10.5988H113.407L107.909 24.6422H111.751ZM115.063 15.3682C115.196 15.037 115.328 14.7058 115.394 13.9109C115.527 14.7058 115.659 15.037 115.792 15.3682L117.249 19.409H113.606L115.063 15.3682ZM130.763 27.5568V24.6422H139.97V27.5568H143.15V21.3963H141.361V10.5988H131.359C131.359 14.3084 130.961 18.2167 129.173 21.3963H127.517V27.5568H130.763ZM134.737 13.9109H137.652V21.3963H133.081C134.141 19.3428 134.538 16.6268 134.737 13.9109ZM144.077 17.6205C144.077 21.5288 146.594 24.9072 151.563 24.9072C156.597 24.9072 159.114 21.5288 159.114 17.6205C159.114 13.7122 156.597 10.2676 151.563 10.2676C146.594 10.2676 144.077 13.7122 144.077 17.6205ZM155.272 17.6205C155.272 19.8727 154.014 21.5288 151.563 21.5288C149.178 21.5288 147.853 19.8727 147.853 17.6205C147.853 15.3682 149.178 13.7122 151.563 13.7122C154.014 13.7122 155.272 15.3682 155.272 17.6205ZM160.373 17.8192C160.373 22.7874 164.149 24.9072 167.991 24.9072C169.514 24.9072 170.905 24.6422 172.098 24.046V20.4027C171.303 21.1976 169.978 21.6613 168.521 21.6613C166.335 21.6613 164.149 20.5352 164.149 17.8192C164.149 14.7721 166.335 13.5135 168.587 13.5135C169.846 13.5135 171.17 13.9772 172.032 14.7058V11.195C170.773 10.5988 169.382 10.2676 167.925 10.2676C164.149 10.2676 160.373 12.5198 160.373 17.8192ZM173.091 10.5988V13.9109H177.066V24.6422H180.776V13.9109H184.684V10.5988H173.091ZM193.693 21.3963L198.727 10.5988H194.62L192.103 16.9581L189.056 10.5988H184.949L190.381 20.3364L190.182 20.8001C189.851 21.5288 189.255 21.7275 188.327 21.7275C187.797 21.7275 187.201 21.6613 186.737 21.4625V24.5097C187.466 24.7747 188.261 24.9072 188.99 24.9072C190.911 24.9072 192.434 24.1122 193.693 21.3963ZM203.695 24.6422V13.9109H208.929V24.6422H212.638V10.5988H200.052V24.6422H203.695ZM217.805 24.6422L218.6 22.3899H224.429L225.224 24.6422H229L223.502 10.5988H219.527L213.963 24.6422H217.805ZM221.117 15.3682C221.25 15.037 221.382 14.7058 221.515 13.9109C221.647 14.7058 221.713 15.037 221.846 15.3682L223.303 19.409H219.726L221.117 15.3682Z" fill="white"/>
<path fill-rule="evenodd" clip-rule="evenodd" d="M55.7761 31.7967V38.7522H58.0284C60.4793 38.7522 61.7379 37.2948 61.7379 35.3076C61.7379 33.254 60.4793 31.7967 58.0284 31.7967H55.7761ZM60.8768 35.3076C60.8768 36.9636 59.9494 37.9573 58.0284 37.9573H56.6373V32.5916H58.0284C59.9494 32.5916 60.8768 33.5853 60.8768 35.3076ZM63.0628 31.7967V38.7522H63.9239V31.7967H63.0628ZM65.2488 35.3076C65.2488 37.891 67.1036 38.8846 69.0246 38.8846C69.7533 38.8846 70.5482 38.6859 71.2106 38.421V35.0426H70.3495V37.8248C70.0182 37.9573 69.5545 38.0897 69.0908 38.0897C67.6335 38.0897 66.1099 37.3611 66.1099 35.3076C66.1099 33.3203 67.6335 32.4591 69.0908 32.4591C69.7533 32.4591 70.4819 32.6579 71.0119 32.9891V32.1942C70.4157 31.863 69.687 31.7305 68.9584 31.7305C67.1036 31.7305 65.2488 32.9228 65.2488 35.3076ZM72.6679 31.7967V38.7522H73.5291V31.7967H72.6679ZM74.589 31.7967V32.5916H76.9737V38.7522H77.8348V32.5916H80.2858V31.7967H74.589ZM80.5508 38.7522L81.2794 37.0961H84.989L85.7177 38.7522H86.6451L83.5979 31.7967H82.6705L79.6896 38.7522H80.5508ZM83.0018 32.9228C83.068 32.8566 83.1342 32.7903 83.1342 32.6579C83.2005 32.7903 83.2005 32.8566 83.2667 32.9228L84.6578 36.3012H81.6107L83.0018 32.9228ZM87.5725 31.7967V38.7522H92.2757V37.9573H88.4336V31.7967H87.5725ZM92.4082 35.9037V36.6324H95.919V35.9037H92.4082ZM100.291 37.1623L102.808 31.7967H101.947L99.9598 36.1025L97.5751 31.7967H96.6477L99.4961 36.8974L99.3636 37.1623C98.9662 37.9573 98.5025 38.0897 97.9725 38.0897C97.7076 38.0897 97.4426 38.0235 97.1776 37.9573V38.6859C97.5088 38.8184 97.84 38.8846 98.105 38.8846C98.8999 38.8846 99.6286 38.4872 100.291 37.1623ZM108.638 31.7967V34.8439H104.531V31.7967H103.736V38.7522H104.531V35.6388H108.638V38.7522H109.499V31.7967H108.638ZM117.05 38.7522V31.7967H116.255L112.148 37.3611C112.148 37.1623 112.148 36.9636 112.148 36.7649V31.7967H111.287V38.7522H112.082L116.255 33.1878C116.255 33.3865 116.255 33.5853 116.255 33.784V38.7522H117.05ZM118.905 31.7967V38.7522H121.82C122.813 38.7522 124.337 38.421 124.337 36.8311C124.337 35.705 123.542 35.2413 122.946 35.1088C123.476 34.9101 124.072 34.4464 124.072 33.5853C124.072 32.3929 123.145 31.7967 121.687 31.7967H118.905ZM123.476 36.7649C123.476 37.891 122.482 37.9573 121.621 37.9573H119.7V35.5725H121.82C122.482 35.5725 123.476 35.705 123.476 36.7649ZM123.211 33.7177C123.211 34.4464 122.615 34.7776 121.886 34.7776H119.7V32.5916H121.621C122.615 32.5916 123.211 32.8566 123.211 33.7177ZM125.728 31.7967V38.7522H130.431V37.9573H126.523V35.6388H130.1V34.8439H126.523V32.5916H130.365V31.7967H125.728ZM131.822 31.7967V38.7522H132.684V36.3012H134.207C135.797 36.3012 137.122 35.7713 137.122 34.049C137.122 32.3267 135.797 31.7967 134.207 31.7967H131.822ZM136.261 34.049C136.261 35.2413 135.333 35.5063 134.207 35.5063H132.684V32.5916H134.207C135.333 32.5916 136.261 32.8566 136.261 34.049ZM137.917 35.3076C137.85 37.626 139.771 38.8846 141.494 38.8846C142.289 38.8846 142.951 38.6859 143.547 38.421V37.5598C143.017 37.891 142.421 38.0897 141.693 38.0897C140.235 38.0897 138.712 37.1623 138.712 35.3076C138.712 33.3203 140.235 32.4591 141.693 32.4591C142.289 32.4591 142.951 32.6579 143.481 32.9891V32.1942C142.885 31.863 142.222 31.7305 141.56 31.7305C139.705 31.7305 137.917 32.9228 137.917 35.3076ZM150.635 38.7522V31.7967H149.84L145.667 37.3611C145.667 37.1623 145.667 36.9636 145.667 36.7649V31.7967H144.872V38.7522H145.601L149.774 33.1878C149.774 33.3865 149.774 33.5853 149.774 33.784V38.7522H150.635ZM151.695 31.7967V32.5916H154.08V38.7522H154.941V32.5916H157.392V31.7967H151.695ZM158.386 31.7967V38.7522H163.155V37.9573H159.247V35.6388H162.758V34.8439H159.247V32.5916H163.089V31.7967H158.386ZM163.751 31.7967V32.5916H166.202V38.7522H166.997V32.5916H169.448V31.7967H163.751Z" fill="white"/>
</svg>
