<svg width="346" height="31" viewBox="0 0 346 31" fill="none" xmlns="http://www.w3.org/2000/svg">
<path fill-rule="evenodd" clip-rule="evenodd" d="M337.981 14.2335H0.422179H0V14.6556V16.3444V16.8268H0.422179H337.981H339.247H340.091L339.488 17.43L338.584 18.3346L328.089 28.8288L327.848 29.07L327.788 29.1304L327.848 29.1907L328.089 29.4319L329.296 30.6984L329.597 31L329.899 30.6984L344.796 15.8016L345.097 15.5L344.856 15.2588L344.735 15.1381L329.899 0.301556L329.597 0L329.296 0.301556L328.089 1.56809L327.788 1.86965L327.848 1.92996L328.089 2.17121L338.644 12.7257L339.549 13.57L340.152 14.2335H339.247H337.981Z" fill="#C5C6C6"/>
</svg>
