<svg width="79" height="36" viewBox="0 0 79 36" fill="none" xmlns="http://www.w3.org/2000/svg">
<path fill-rule="evenodd" clip-rule="evenodd" d="M59.8605 0.0652787C57.4779 0.359033 55.1931 1.0771 52.8757 2.25211C50.5257 3.45977 48.143 5.15702 45.6298 7.34385V7.37649C45.0096 7.89872 44.4874 8.35567 43.8999 8.94318C43.2798 9.53069 42.5617 10.2488 41.5499 11.2606C40.8318 11.9786 40.4075 12.3703 40.1464 12.5988C39.6568 13.0231 39.4283 13.0557 39.1672 12.8925H39.1346C39.0693 12.8599 38.8734 12.6641 38.6123 12.4356C38.3839 12.2071 38.0901 11.9134 37.7637 11.587C34.206 7.93136 31.3011 5.35285 28.5921 3.59033C25.9483 1.79516 23.5003 0.815983 20.8892 0.326393C19.1593 0.0326393 17.4294 -0.0326393 15.7322 0.163197C14.0349 0.326393 12.3377 0.783344 10.7383 1.46877C8.06192 2.61115 5.71188 4.37367 3.91672 6.56051C2.12156 8.74734 0.881262 11.3585 0.326393 14.1655C0.195836 14.8183 0.130557 15.3078 0.0652787 15.7974C0.0326393 16.287 0 16.8419 0 17.5926C0 18.8003 0.097918 19.91 0.261115 20.9545C0.456951 21.9989 0.718065 23.0434 1.0771 24.0878C2.12156 27.0254 3.85144 29.4733 6.10356 31.3338C8.35567 33.1942 11.0974 34.4019 14.1981 34.8915C16.1238 35.1526 18.1475 35.1199 20.1711 34.7935C22.2274 34.4345 24.251 33.7817 26.1441 32.8352C26.8948 32.4435 27.5802 32.0845 28.2657 31.6275C28.9511 31.2032 29.6692 30.7136 30.4525 30.1261C31.4643 29.3754 32.3129 28.69 33.2921 27.7761C34.3039 26.8948 35.4463 25.7851 37.0456 24.2184C37.5679 23.6962 38.0901 23.2066 38.4491 22.8475C38.9387 22.3579 39.363 22.0642 39.4936 22.0642C39.6894 22.0642 39.9179 22.2274 40.179 22.4885C40.3749 22.6517 40.6033 22.8802 40.8644 23.1413C41.3867 23.6962 42.3006 24.6101 43.2471 25.4913C44.161 26.4052 45.1076 27.2865 45.6624 27.7761C48.1757 30.0282 50.4278 31.6602 52.582 32.8025C54.7688 33.9449 56.923 34.5977 59.3057 34.9241C59.4689 34.9567 59.73 34.9567 60.089 34.9894C60.4154 34.9894 60.905 34.9894 61.4272 34.9894C62.08 34.9894 62.537 34.9894 62.8634 34.9567C63.2224 34.9567 63.4835 34.9241 63.8425 34.8588C65.8335 34.5651 67.6613 33.9775 69.3259 33.1289C71.0232 32.2803 72.5572 31.1706 73.9281 29.7997C75.3316 28.3962 76.4413 26.8295 77.2899 25.0996C78.1386 23.3698 78.6934 21.4767 78.9219 19.4857C78.9872 18.9961 79.0198 18.1475 78.9872 17.2988C78.9872 16.4502 78.9546 15.569 78.8893 15.112C78.6608 13.3821 78.2365 11.7502 77.649 10.2814C77.0615 8.77998 76.3108 7.40913 75.4295 6.23411C75.1684 5.84244 74.7114 5.35285 74.2218 4.86326C73.7649 4.37367 73.2753 3.91672 72.8836 3.62297C71.7739 2.7417 70.501 1.991 69.0975 1.43613C67.694 0.848623 66.1599 0.424311 64.4953 0.163197C63.9731 0.0652787 63.0592 0.0326393 62.1453 0C61.264 0 60.3501 0.0326393 59.8605 0.0652787ZM20.269 6.52787C21.3461 6.75634 22.4559 7.14801 23.533 7.6376C24.6101 8.15983 25.7198 8.84526 26.7969 9.6286C27.1559 9.92236 27.6455 10.2814 28.1025 10.6731C28.5921 11.0647 29.049 11.4564 29.408 11.7828C29.865 12.2071 31.2685 13.5453 32.5741 14.8183C33.9123 16.1238 35.1199 17.3968 35.1199 17.56C35.1199 17.7558 34.0755 18.8982 32.9005 20.0406C31.7581 21.1829 30.4525 22.4559 29.9303 22.9128C28.3962 24.2837 26.8622 25.426 25.426 26.3399C23.9246 27.2212 22.5211 27.874 21.1177 28.2657C20.4649 28.4615 19.9426 28.5921 19.3878 28.6573C18.8003 28.7226 18.2127 28.7553 17.4294 28.7553C16.8419 28.7553 16.4829 28.7553 16.1565 28.7226C15.8301 28.7226 15.569 28.6573 15.2426 28.5921C13.2842 28.2004 11.6196 27.3844 10.2488 26.1767C8.91054 24.9691 7.86608 23.3698 7.24593 21.5093C6.7237 19.91 6.52787 18.3433 6.62579 16.8419C6.7237 15.3078 7.14801 13.8391 7.86608 12.4029C8.68206 10.771 9.85708 9.43277 11.2606 8.42095C12.6641 7.37649 14.3287 6.69106 16.1891 6.39731C16.3849 6.36467 16.6461 6.33203 16.9725 6.33203C17.2662 6.33203 17.6252 6.33203 18.1148 6.33203C18.6697 6.33203 19.0287 6.36467 19.3225 6.36467C19.6489 6.39731 19.91 6.46259 20.269 6.52787ZM63.1898 6.39731C64.2669 6.56051 65.246 6.82162 66.1926 7.24593C67.1065 7.67024 67.9551 8.22511 68.7384 8.8779C70.1746 10.1508 71.2517 11.9134 71.8392 13.8391C72.4593 15.7648 72.5899 17.8864 72.1329 19.91C71.7086 21.9663 70.6968 23.8267 69.2933 25.2955C67.8898 26.7969 66.0947 27.874 64.071 28.4289C63.5814 28.5594 63.0918 28.6573 62.6349 28.69C62.1453 28.7553 61.6557 28.7879 61.0682 28.7879C60.0564 28.7879 59.1425 28.69 58.2286 28.4615C57.3147 28.233 56.4008 27.874 55.389 27.3844C54.3445 26.8622 53.3 26.242 52.2229 25.4587C51.1458 24.6753 50.0361 23.6962 48.7632 22.5211C47.9798 21.7704 46.8048 20.6607 45.8583 19.7142C44.8138 18.7023 43.9652 17.8211 43.9325 17.6579C43.8999 17.3968 44.7159 16.4176 45.7277 15.4058C46.609 14.4919 47.6534 13.4474 48.2736 12.8925C50.4604 10.8689 52.3861 9.40013 54.2466 8.35567C56.1397 7.27857 57.9675 6.65842 59.8605 6.39731C60.2849 6.33203 60.905 6.29939 61.5251 6.29939C62.1453 6.29939 62.7654 6.33203 63.1898 6.39731Z" fill="#009AF8"/>
</svg>
