<svg width="56" height="52" viewBox="0 0 56 52" fill="none" xmlns="http://www.w3.org/2000/svg">
<path d="M50.1797 10.9955V5.89865C50.1797 4.97792 49.9824 4.09008 49.6207 3.30088C49.2918 2.51169 48.7657 1.82114 48.108 1.26213C47.3846 0.703115 46.5297 0.3414 45.6089 0.144101C44.6882 -0.0531977 43.7017 -0.0531977 42.6494 0.176984H42.6166L6.74105 4.32026C3.88021 4.68198 2.20317 5.47117 1.21668 6.45766C0.295948 7.41128 0 8.56219 0 9.58156V45.2269C0 46.8053 0.690546 48.285 1.74281 49.3373C2.79507 50.3895 4.24193 51.0801 5.8532 51.0801H50.1468C51.7252 51.0801 53.2049 50.3895 54.2572 49.3373C55.3095 48.285 56 46.8382 56 45.2269V17.2762C55.9342 15.7307 55.3423 14.3825 54.3887 13.3302C53.4022 12.3109 52.0869 11.5874 50.5743 11.423L50.1797 11.3901V10.9955ZM51.5608 35.9538H51.1004H39.953C38.5391 35.9538 37.2566 35.3619 36.303 34.4412C35.3823 33.4876 34.7904 32.2052 34.7904 30.7912C34.7904 29.3443 35.3823 28.0619 36.303 27.1083C37.2566 26.1876 38.5391 25.5957 39.953 25.5957H51.1004H51.5608H51.9883V26.056V35.5264V35.9538H51.5608ZM7.10276 8.332L43.2413 4.18873L43.2742 4.15584H43.4386C43.899 4.0572 44.2936 4.02431 44.6553 4.0572C45.0828 4.12296 45.4445 4.28738 45.6747 4.51756C45.9378 4.68198 46.1022 4.94504 46.2008 5.20811V5.24099C46.2666 5.50405 46.3324 5.8 46.3324 6.16172V11.1271V11.5546H45.872H5.72167H5.62302H5.49149C5.064 11.5546 4.73517 11.4559 4.47211 11.2915C4.20904 11.0942 4.04463 10.864 3.81445 10.5023L3.74868 10.4036V10.305V9.94328C3.74868 9.54868 3.97886 9.15408 4.60364 8.85813C5.09689 8.62795 5.88608 8.43065 7.10276 8.332ZM50.0153 47.4301H5.72167C5.19554 47.4301 4.70229 47.1999 4.34058 46.8382C3.97886 46.4765 3.74868 45.9832 3.74868 45.4571V15.6321V15.073L4.27481 15.2046C4.57076 15.2375 4.80094 15.2703 5.064 15.3032C5.29419 15.3032 5.55725 15.3032 5.8532 15.3032H50.0153C50.5743 15.3032 51.0675 15.5334 51.4292 15.8951C51.7581 16.2568 51.9883 16.7501 51.9883 17.2762V21.4195V21.847H51.5608H51.1004H39.953C37.4868 21.847 35.2179 22.8664 33.5737 24.5105C31.9295 26.1547 30.9102 28.4236 30.9102 30.8898C30.9102 33.389 31.9295 35.625 33.5737 37.2692C35.2179 38.9133 37.4868 39.9327 39.953 39.9327H51.1004H51.5608H51.9883V40.3602V45.5886C51.9883 46.0819 51.7581 46.5422 51.3964 46.9039C51.0346 47.2328 50.5414 47.4301 50.0153 47.4301Z" fill="#009AF8"/>
<path d="M40.4463 33.5533C41.8992 33.5533 43.077 32.3755 43.077 30.9226C43.077 29.4698 41.8992 28.292 40.4463 28.292C38.9935 28.292 37.8157 29.4698 37.8157 30.9226C37.8157 32.3755 38.9935 33.5533 40.4463 33.5533Z" fill="#009AF8"/>
</svg>
