<svg width="60" height="54" viewBox="0 0 60 54" fill="none" xmlns="http://www.w3.org/2000/svg">
<path d="M42.9752 19.8017L48.6942 23.7686C48.4959 22.0165 48.0661 20.3306 47.4711 18.7107C46.3802 15.7686 44.6281 13.0248 42.3471 10.7438C37.9835 6.38017 32.2645 4.19835 26.5455 4.19835C20.8264 4.19835 15.1074 6.38017 10.7438 10.7438C6.38017 15.1074 4.19835 20.8264 4.19835 26.5455C4.19835 32.2645 6.38017 37.9835 10.7438 42.3471C15.1074 46.7107 20.8264 48.8926 26.5455 48.8926C32.2645 48.8926 37.9835 46.7107 42.3471 42.3471C43.1736 41.4876 43.9339 40.595 44.595 39.6694C45.2893 38.7438 45.9174 37.719 46.4463 36.6942L50.1818 38.5785C49.5537 39.8347 48.8264 40.9917 48 42.1157C47.1736 43.2727 46.281 44.3306 45.2893 45.2893C40.0992 50.4793 33.3223 53.0578 26.5455 53.0578C19.7355 53.0578 12.9587 50.4793 7.76859 45.2893C2.57851 40.1322 0 33.3223 0 26.5455C0 19.7355 2.57851 12.9587 7.76859 7.76859C12.9587 2.61157 19.7355 0 26.5455 0C33.3223 0 40.0992 2.61157 45.2893 7.76859C48 10.4793 50.0496 13.719 51.3719 17.2562C52.0661 19.0744 52.562 20.9917 52.8264 22.9421L56.562 17.5868L60 20L53.2893 29.4876L52.0992 31.2066L50.4132 30.0165L40.595 23.2397L42.9752 19.8017Z" fill="#009AF8"/>
<path d="M28.2645 14.1816H22.3141C21.9835 14.1816 21.6529 14.2808 21.3554 14.413C21.0248 14.5783 20.7273 14.8428 20.4959 15.1073V15.1403C20.2976 15.3056 20.1653 15.5701 20.0662 15.8015C19.9339 16.099 19.9009 16.3965 19.9009 16.7271V32.8593V33.1899L19.5703 33.2891C19.1075 33.3883 18.7108 33.6197 18.4463 33.9833C18.1488 34.3139 17.9835 34.7436 17.9835 35.2395C17.9835 35.7354 18.1488 36.1651 18.4463 36.4957C18.7108 36.8593 19.1075 37.1238 19.5703 37.223L19.9009 37.2891V37.6197V38.4461C19.9009 38.975 20.0992 39.4709 20.4629 39.8345C20.8265 40.1651 21.3224 40.3965 21.8513 40.3965C22.3802 40.3965 22.8761 40.1651 23.2397 39.8345C23.5703 39.4709 23.8017 38.975 23.8017 38.4461V37.7188V37.3221H24.2315H29.1901C29.7521 37.3221 30.2149 37.0907 30.5786 36.7271C30.9422 36.3965 31.1736 35.9006 31.1736 35.3717C31.1736 34.8097 30.9422 34.3469 30.5786 33.9833C30.2149 33.6197 29.7521 33.4213 29.1901 33.4213H24.2315H23.8017V32.9916V31.3387V30.9089H24.2315H28.2645C30.5786 30.9089 32.6612 29.9833 34.1819 28.4626C35.6695 26.942 36.6281 24.8593 36.6281 22.5453C36.6281 20.2312 35.6695 18.1486 34.1819 16.6279C32.6612 15.1073 30.5786 14.1816 28.2645 14.1816ZM28.2645 27.0081H24.2315H23.8017V26.5783V18.5122V18.0825H24.2315H28.2645C29.4877 18.0825 30.6116 18.5783 31.405 19.3717V19.4048C32.2315 20.1982 32.6943 21.2891 32.6943 22.5453C32.6943 23.8015 32.2315 24.8924 31.405 25.7188C30.6116 26.5122 29.4877 27.0081 28.2645 27.0081Z" fill="#FFB700"/>
</svg>
