<svg width="112" height="111" viewBox="0 0 112 111" fill="none" xmlns="http://www.w3.org/2000/svg">
<path fill-rule="evenodd" clip-rule="evenodd" d="M111.704 111V0.30163L0 0L111.704 111Z" fill="#2F74FF"/>
<path d="M83.1495 10.7578C78.3234 10.7578 74 12.6681 70.7826 15.8855C67.6658 19.0024 65.6549 23.4263 65.6549 28.2524C65.6549 32.5757 67.2636 36.5975 69.9783 39.6138L61.7337 48.0594C61.1304 48.6627 61.1304 49.6681 61.8342 50.2714C62.4375 50.8747 63.4429 50.8747 64.0462 50.2714L72.1902 41.8257C75.2065 44.2388 79.0272 45.7469 83.1495 45.7469C87.9755 45.7469 92.3995 43.7361 95.5163 40.6192C98.7337 37.4018 100.644 33.0785 100.644 28.2524C100.644 23.4263 98.7337 19.0024 95.5163 15.8855L95.4158 15.785C92.2989 12.6681 87.9755 10.7578 83.1495 10.7578ZM84.356 35.8937V29.66H90.4891V27.1464H84.356V21.0132H81.7418V27.1464H75.6087V29.66H81.7418V35.8937H84.356ZM73.0951 18.0975C75.7092 15.4834 79.2283 13.8747 83.1495 13.8747C87.0707 13.8747 90.6902 15.4834 93.2038 17.9969L93.3043 18.0975C95.9185 20.7116 97.5272 24.2306 97.5272 28.2524C97.5272 32.1736 95.9185 35.7931 93.3043 38.3067C90.6902 40.9209 87.1712 42.5296 83.1495 42.5296C79.2283 42.5296 75.7092 40.9209 73.0951 38.3067C70.481 35.7931 68.8723 32.1736 68.8723 28.2524C68.8723 24.2306 70.481 20.7116 73.0951 18.0975Z" fill="white"/>
</svg>
